<svg xmlns="http://www.w3.org/2000/svg" viewBox="0 0 2364 2132"><path fill="#F4F5F8" d="M1087 186c-12 3-24 7-27 9-1 0-3 1-4 1s-25 12-30 16c-8 5-30 15-40 17-14 4-42 4-57 0-13-3-16-4-48-19-17-8-18-9-30-13-13-5-34-9-44-8-23 3-35 8-51 19-15 11-39 38-58 65-2 4-7 10-10 14-3 5-9 14-14 20-4 7-10 15-12 18s-7 11-12 17-9 12-10 13c-1 2-4 5-6 9-18 22-31 44-36 57-8 24-13 58-15 98-1 29-1 156 0 188 1 29 1 30-3 32-5 3-7 8-8 18-1 5-1 12-2 15 0 3-1 16-2 28 0 16-1 22-2 23-2 2-41-11-63-22-2 0-10-4-17-7-64-29-148-79-208-124-8-6-17-12-20-15-4-2-11-7-17-12-18-13-36-26-45-31-9-4-10-4-17-4-13-1-23 6-29 18-2 6-2 7-2 21 0 10 0 17 1 21s3 9 3 13c3 12 8 29 12 40 2 4 4 9 4 11 3 9 5 13 8 19 1 4 5 11 8 17a734 734 0 0 0 40 78c1 2 3 4 4 6s3 6 6 10c2 3 5 9 7 12 61 98 133 176 192 211 24 14 38 20 64 29 14 5 47 14 59 17 3 0 9 2 15 3 12 3 18 4 25 5 3 0 8 1 12 2 3 1 7 1 9 2 4 0 7 4 7 9 0 2 1 7 2 12 0 4 2 10 2 13a4560 4560 0 0 0 16 78c0 1 1 5 2 8s3 10 4 15 3 14 5 19c3 11 2 13-4 13-2 0-8 1-12 1-5 1-14 2-19 2-6 0-16 1-23 2s-19 2-26 3c-14 1-31 3-33 4 0 1-6 1-12 2-9 1-20 3-38 6-3 1-9 1-12 2-11 2-33 6-39 8l-21 4c-3 1-8 2-10 2-9 3-35 11-42 13-12 3-21 7-27 9-4 2-11 4-15 6-13 4-22 8-28 11-2 2-5 3-6 3s-6 2-12 4l-10 4c-1 0-32 14-43 20-5 2-14 7-19 11-5 3-13 8-17 9-8 4-13 8-23 16-4 2-11 7-16 10-20 12-26 16-37 28-6 6-14 13-19 16-11 8-19 18-31 40-3 7-7 14-9 17-5 7-7 13-9 27-2 16-4 29-6 38-2 10 0 22 5 40 1 3 2 9 2 12 0 18 9 37 26 55 2 3 9 10 14 15 12 14 14 16 44 31 17 9 22 11 32 11 17 1 33 3 40 4 6 1 25 1 33-1a228 228 0 0 0 64-21c5-3 13-7 17-8 10-5 18-10 25-16 7-5 24-17 28-19 5-2 44-39 58-54 2-3 8-9 12-13 5-4 12-12 16-17s10-12 13-14c11-11 16-15 22-23 3-4 10-11 15-16 4-5 10-11 12-14 5-6 7-8 17-17 4-3 13-12 20-19 6-6 14-14 18-16 3-3 10-9 16-13 5-5 12-11 15-14 4-2 9-7 13-10 17-15 90-56 95-54 2 0 7 7 7 9 0 0 1 1 1 2 1 1 3 5 5 8 3 4 5 8 5 8 3 4 1 7-8 13-14 8-13 8-24 15-5 4-10 8-12 9-1 1-6 4-10 7-5 4-11 8-15 11-3 2-13 9-22 16-9 6-17 12-18 13-2 1-7 5-12 8-4 4-12 10-17 13-15 12-19 16-18 18 0 2 6 10 13 20l22 31c5 8 11 16 12 17 3 4 2 7-4 9l-6 2c-1 0-6 3-11 6-35 18-59 34-84 54-11 10-40 38-52 52-5 6-10 12-13 15-2 2-4 5-4 6 0 2 4 1 9-3 5-3 20-14 34-22 10-7 32-18 43-23 4-2 9-4 11-4 7-4 24-11 25-11 0 0 2-1 4-1 2-1 10-4 19-7 8-2 16-5 18-6 3-1 9-3 28-8 26-8 27-8 30-5 1 2 6 10 12 20 1 3 5 10 8 15 17 31 44 86 59 121 4 11 5 13 9 21 2 4 4 9 16 37q6 15 9 15c2 0 2-3 1-6-1-1-2-6-2-11-3-16-10-42-13-54-1-3-3-9-4-13s-2-8-3-10c-9-25-14-37-16-42 0-1-1-3-1-3 0-1-1-4-3-7-1-3-3-6-3-8-13-30-32-67-43-84-1-1-2-3-3-4-5-10-30-46-46-66-15-21-22-31-22-33s3-4 7-4c2 0 5-1 8-1 2-1 4-1 6-2 1 0 2 1 5 5l18 27a488 488 0 0 1 59 96c10 19 12 23 21 44 3 7 6 13 6 14 2 6 10 26 10 27l2 4c1 3 2 5 2 6s1 3 2 6c4 9 6 14 7 18 1 2 2 6 4 10 1 4 3 9 3 11 2 6 5 13 6 15s2 5 3 8c1 4 5 14 8 23a251 251 0 0 0 15 41c0 3 2 6 2 7 1 2 3 6 4 9 3 8 10 16 16 20 4 2 5 2 14 2 16 0 17 0 36-20 16-16 34-37 44-52 6-9 15-20 17-20 1-1 2 0 4 1 1 1 4 3 6 4 7 4 7 5 4 12-4 7-13 22-14 24-1 1-1 2 0 3s6-2 14-9c6-5 23-18 29-22 18-13 25-17 40-26 10-5 18-10 18-10 1 0 6-3 12-6 12-7 51-26 78-39 3-1 10-4 15-7 5-2 9-4 9-4 1 0 4-2 8-3 4-2 10-5 13-6 3-2 13-6 22-10 8-4 20-10 26-12 29-13 90-46 111-59 25-16 41-28 56-40 6-5 16-12 21-16 41-32 84-81 118-135 2-3 4-7 5-8 2-3 11-19 13-22 0-1 3-6 6-12 8-14 9-15 14-11 2 1 3 2 3 2 2 0 23 15 32 21 21 16 38 34 50 54 13 19 15 28 17 53 2 28 1 44-5 54-1 2-3 7-5 11-8 21-46 56-72 68-5 2-10 4-11 5-2 1-19 8-35 14-6 3-16 7-22 10-10 4-18 7-43 15-10 4-18 7-27 11-4 2-9 4-10 5-1 0-3 1-4 2-2 0-3 1-4 1-2 0-11 5-14 7-1 1-5 4-9 6-10 5-10 6 0 6 5 0 11 1 14 1 3 1 8 3 12 3 4 1 10 3 15 5 4 2 9 4 10 4s6 2 10 4c19 8 31 10 41 7 2-1 6-2 8-2 2-1 6-2 8-3 7-3 14-5 19-6 8 0 21-4 29-8 4-2 8-3 8-3 1 0 3-1 6-2 2-1 6-3 8-3 3-1 8-3 11-5 4-1 9-4 12-5 7-3 27-16 32-21 2-1 6-4 10-6 12-5 21-12 33-24 22-23 27-32 31-51 1-3 3-8 5-11 4-6 8-18 8-22 0-3 2-12 6-20 4-9 4-25 0-33-3-5-3-5-2-13 0-9-1-17-4-27-3-8-7-21-9-28-3-13-10-28-20-42-4-6-10-13-12-16-8-11-11-15-23-27-7-6-13-13-15-15-1-3-3-6-5-7-3-5-3-7 1-7 4 1 21 8 41 18 5 2 14 6 19 9 9 3 16 7 36 18 13 7 48 27 55 31 3 3 10 7 15 10s19 12 31 20c21 14 26 16 25 12-1-2-42-40-58-53-32-26-76-55-112-73-15-8-23-11-42-21-3-1-8-3-12-4-4-2-7-3-8-4-3-2-15-6-25-9-15-5-35-13-37-14-1-1-1-4-1-9s-1-12-1-17c-1-5-1-15-2-22s-2-17-2-21c-1-4-2-13-3-20 0-6-1-14-2-18-1-3-2-10-3-16-6-37-5-36-23-48-12-7-62-33-76-39-5-2-16-6-23-9-21-9-21-8-8-17 42-29 75-81 93-147 1-4 3-10 4-14s2-7 2-8c1-3 5-6 11-7 5-1 50-12 72-18 59-16 115-39 166-68 9-4 19-10 23-12 23-13 64-46 86-69 12-12 33-40 41-52 13-23 22-42 26-58 0-3 1-8 2-10 2-6 2-39 0-46-5-24-11-34-27-51-10-9-19-15-33-22-12-5-14-6-32-11-22-6-64-7-84-2-3 1-8 2-11 3-3 0-9 1-12 2-37 10-48 14-72 24-11 4-20 8-21 8-1 1-9 5-19 10-10 4-18 9-18 9-1 0-6 3-12 7-7 3-20 11-31 17-29 17-34 21-71 45-8 5-15 9-15 8l-4-10c-7-24-10-27-17-26-5 1-7-1-9-15-2-6-4-13-4-16-3-10-5-20-6-27-1-3-3-9-3-12-1-3-3-10-4-17-2-6-3-12-4-14 0-1-2-8-4-16-2-7-4-15-4-18-2-5-5-16-6-24-1-3-3-9-4-13s-3-10-3-14c-1-3-3-10-5-16-1-5-3-12-3-15-10-42-16-53-30-65-5-3-33-20-35-20-1 0-29-17-38-23-24-17-37-27-76-62-33-29-59-48-78-58-13-7-19-9-20-9s-4-1-6-2c-15-6-47-8-63-4M655 1379c7 2 8 4 1 7-24 11-54 28-65 36-4 3-9 7-11 8-8 5-21 13-23 16-2 1-8 6-14 10-5 5-14 11-19 15s-12 9-15 13l-15 15c-6 4-16 14-23 21s-16 16-21 20c-5 5-10 11-13 14-2 3-8 9-13 13s-13 12-19 18c-5 6-11 13-15 16-6 5-11 11-18 19-2 3-7 8-11 11-12 9-23 18-27 24-5 6-9 9-18 15-4 3-11 8-16 13-6 5-12 9-17 12-4 2-11 5-15 7-30 14-65 17-87 7-4-2-9-4-10-4-8-3-30-22-37-33-10-14-13-32-11-55l1-10 8-13c4-7 13-20 20-29l17-22c7-10 8-11 42-33 30-21 73-43 111-59 5-2 12-5 16-7 4-1 7-3 8-3s14-5 32-11c16-6 31-11 41-13 5-2 15-5 24-7 17-5 25-7 36-9 3-1 9-2 13-3 3-1 9-2 13-2 3 0 11-2 17-3 20-4 42-7 56-9 5-1 12-1 16-2 3-1 15-1 26-2 12 0 21-1 22-1 1-1 6-1 13 0m57 254c0 1 1 2 2 4 1 1 2 3 2 4 0 2 1 4 2 5s2 3 2 3c0 1 1 4 3 7 1 3 3 8 5 11l12 29c1 2 2 5 3 6 0 2 1 3 1 4s1 3 2 5 3 8 5 13c2 4 4 12 6 15 1 4 3 9 3 11 1 3 2 5 3 6 0 2 1 3 1 4s1 5 2 8c2 6 3 11 1 11-1 0-2-2-2-4-1-1-2-4-3-7-1-2-3-7-5-11-1-4-3-9-4-12-1-2-3-6-4-9s-4-11-6-17a156 156 0 0 1-9-23c-1 0-3-5-5-11-7-20-9-25-11-29-1-1-2-4-2-6-1-1-2-4-2-6-2-3-4-9-5-12 0-2 0-2 1-1z"/><path fill="#BAC1CD" d="M1090 183c-3 1-8 2-12 3-6 2-13 4-20 7-2 1-4 2-5 2s-2 0-3 1c0 0-4 3-8 5s-11 5-15 8c-7 4-24 12-31 15-24 10-62 8-85-3-3-1-5-2-5-2-1 0-19-8-22-10-1-1-2-1-3-2-1 0-6-2-11-5-5-2-9-4-10-4 0 0-4-2-9-3-5-2-11-4-14-5-4-1-8-2-10-2-6-1-22-1-28 0-17 3-33 10-46 20-13 11-37 37-49 54-4 6-14 20-20 29-3 4-6 9-8 11-2 3-7 10-10 15-4 6-15 21-25 34-18 24-21 28-27 37-7 11-10 16-13 22-2 4-4 8-4 9-1 1-1 4-2 6 0 2-2 6-2 8-2 6-4 14-5 22-1 4-2 11-3 15 0 4-2 21-3 38 0 16-1 30-2 30-1 2 0 138 1 152 2 25 2 45-1 46-6 4-9 9-10 21 0 6-1 11-2 11 0 1-1 13-1 27s-1 26-1 27c-1 0-2 0-4-1s-6-2-9-3c-2-1-5-1-5-2-1 0-4-1-7-2s-8-3-10-4c-3-1-7-2-9-3-23-8-77-35-116-57-16-9-31-17-33-19-2-1-7-3-9-5s-5-3-6-4c-8-4-59-39-83-56-17-13-19-15-26-19-3-3-9-7-13-10s-8-6-10-7c-1-1-6-4-11-8s-11-7-12-8c-2-1-6-3-9-5-8-5-22-5-30 0-21 12-24 37-11 82 1 4 2 7 2 8s1 3 1 5c1 2 2 5 3 7 1 4 5 14 7 19 0 1 1 3 1 4 0 0 1 3 2 5 1 3 6 13 10 24 12 27 29 59 40 77 1 2 3 5 4 6 0 2 2 5 3 7 2 3 5 7 6 10 9 14 29 45 40 60 33 47 54 72 84 102 45 46 87 73 137 91 6 2 14 4 17 5 2 1 7 3 10 4 3 0 9 2 14 3 9 3 21 5 32 7 4 1 10 3 13 3 3 1 11 3 18 4 22 4 23 4 24 5 0 1 1 6 2 12 0 5 1 11 2 12 0 2 1 7 2 12 1 4 1 9 2 10 0 1 1 5 2 9 1 5 2 10 3 13 0 2 1 5 1 7 0 1 1 6 2 9l3 13c2 11 3 17 5 22 1 3 2 8 3 11 1 6 3 12 5 21 3 9 2 10-5 10-3 0-9 1-11 1-3 1-13 2-23 2-11 1-20 2-23 2-3 1-10 2-16 3-11 0-26 2-57 7-8 1-17 2-20 3-4 1-12 2-16 3-5 1-10 2-12 2s-30 6-33 7c-2 0-6 1-10 2-9 1-21 4-25 5-8 3-31 10-36 11-14 4-24 8-33 12-4 1-8 3-10 4-5 1-21 7-28 11-4 1-7 3-8 3s-17 6-20 8c-2 0-3 1-4 1s-4 1-7 3c-3 1-8 3-10 4s-11 6-20 10c-13 6-18 9-28 17-1 1-5 3-9 4-8 4-19 11-26 17-3 3-7 5-8 6-1 0-4 2-6 3s-7 4-10 6c-4 2-7 5-8 5-6 3-12 9-22 19-7 7-14 13-17 15-10 7-20 19-29 36-2 3-4 7-4 7 0 1-2 4-4 8s-5 8-6 9c-3 5-6 12-6 15 0 2 0 4-1 6-1 1-2 8-2 15-1 8-2 15-3 17-2 5-2 33 0 40 3 11 4 15 5 26 3 23 9 34 31 59 17 19 25 26 35 30 4 3 9 5 10 7 14 9 35 16 46 16 4 0 36 3 40 4h10c4-1 12-1 19-2 9-1 15-2 24-5 1-1 5-2 7-3 15-4 19-6 43-18 1 0 4-2 8-4 10-4 12-5 20-11 12-9 31-22 34-24 2-1 9-7 16-14 7-6 16-15 21-19 5-5 11-11 13-14s10-10 16-16 15-15 18-19c7-9 12-14 22-23 3-3 8-8 11-12s12-13 18-20c7-7 13-13 13-14 0-2 6-8 13-14 4-2 13-11 21-19s18-17 22-20 11-9 15-13 10-9 13-11c4-2 9-7 13-10 3-3 9-8 14-11 4-2 9-5 10-7 14-8 34-20 44-25 6-3 15-7 19-9l8-4 2 3c5 6 15 25 15 27 0 1-5 5-10 8-6 4-12 8-13 9-2 1-6 4-9 6s-11 8-19 13c-7 5-15 11-18 13s-8 6-11 8-7 5-8 6c-18 12-69 52-70 54s3 8 18 28c3 4 8 10 23 32 3 5 6 9 7 11 3 3 2 4-3 5-2 1-6 3-7 4-2 1-8 4-13 7l-14 7c-2 1-5 3-6 4-1 0-5 2-7 4s-5 3-7 4c-1 0-2 2-3 2l-2 2c-2 0-17 10-32 22-15 11-40 35-50 47-2 2-8 8-12 14-5 5-11 12-14 15-8 8-3 13 6 6 6-4 24-16 25-17 1 0 6-3 11-6 13-9 31-18 46-24l10-5c10-4 20-8 29-11 5-2 12-4 15-5 12-4 15-5 28-9 4-1 8-3 11-3 2-1 5-2 6-2s3-1 4-1c2-1 5-2 8-3 2 0 6-1 7-2 1 0 4-1 7-1 4-1 4-1 12 13 2 4 5 8 5 9 1 1 2 3 2 5 1 1 4 6 6 9 8 14 35 68 46 92 1 4 4 9 5 12 2 3 4 8 5 11 2 3 3 6 3 7s1 2 1 4c2 2 3 5 9 18 1 3 3 7 4 10s3 7 4 9 2 4 2 5 2 5 4 9c2 5 4 9 4 9 0 3 6 9 7 9 3-1 4-6 1-15 0-4-2-10-2-13s-2-8-2-11c-1-2-2-7-3-10-2-9-5-23-8-32-1-1-2-5-3-8-1-6-4-14-6-19-1-2-2-5-2-6 0 0-1-3-2-5s-2-4-2-5-1-4-2-6-2-4-2-5c0 0-1-3-2-5s-2-4-2-5-1-3-2-5-3-6-4-9c-4-10-22-47-26-55-2-2-3-4-4-5 0-1-13-24-15-27-3-4-21-32-24-36-2-2-4-6-5-8-2-2-6-8-11-15-18-23-20-26-24-32-2-3-4-6-4-8s-1-3-3-5l-3-3 4-5c2-2 10-9 16-14 7-6 15-13 18-16 3-2 8-7 12-9 3-3 9-7 13-11 4-3 14-10 22-17 8-6 18-13 22-17 11-9 11-8 13-7 2 2 5 10 4 12 0 1-1 3-3 4-17 11-93 74-95 79-2 4 0 8 20 34 9 12 31 46 36 54 8 13 14 25 21 39 3 5 6 10 6 11 3 4 19 41 24 54 1 3 3 7 4 10 2 4 4 11 8 22 1 3 3 8 4 10s3 7 4 10c1 4 3 9 4 11 1 3 2 5 2 6s1 3 2 5c1 3 2 5 2 6s1 4 2 6c1 3 2 6 3 8 3 7 3 10 5 14q4.5 12 6 18c0 2 1 5 2 7 1 1 2 4 2 4 0 1 1 4 2 6 1 3 2 6 3 8 3 9 4 12 6 15 0 1 1 3 1 4s1 2 1 4c1 1 2 3 2 4 3 10 7 15 10 13 1 0 0-25-2-44 0-7-1-17-1-24 0-6-1-16-2-22 0-6-2-15-2-19s-1-10-2-14-2-9-2-12-1-10-2-15c-5-29-6-49-4-66 1-4 1-11 2-15 1-7 2-16 6-29 1-4 2-8 2-11 0-5 1-5 4 1 1 3 6 10 10 16 3 6 7 11 8 12 0 1 3 4 6 8 2 4 5 7 6 9 9 12 46 50 54 54 5 2 6 2 6-2-1-2 0-4 0-5 1-2 1-4 0-7s-2-6-2-9c-1-2-2-6-3-10s-4-16-7-27-6-25-8-30c-5-17-7-22-7-24 0 0-1-3-1-4-1-2-3-5-3-8l-2-4c-2 0-2 4-1 12 4 15 6 25 8 31 1 4 3 11 3 14 1 4 3 10 4 12 0 3 1 8 2 10 0 2 1 5 1 6 1 0 2 3 2 5 1 4 4 12 6 16 0 1 1 4 1 6l1 4-2-2c-1-1-2-3-2-4s-1-4-2-6-2-4-2-5c0 0-1-3-2-5s-2-4-2-5-1-3-1-5c-3-4-9-25-13-39-1-5-3-12-4-16-2-8-6-24-6-30-1-2-1-6-2-9-1-2-1-8-2-13s-2-13-2-19c-2-10-2-21-1-21 0 0 5 4 10 10 6 5 12 11 14 12l17 15c7 7 16 15 19 17 4 2 9 7 13 11 17 14 39 31 40 31 2 0 18 15 27 24 4 3 7 6 8 6 2 0 9-7 22-23 8-10 16-17 18-17 1 1-1 4-10 13-15 14-48 56-65 81-2 3-5 7-6 8-5 7-22 33-22 34l-4 6-4 6c0 1-1 3-3 5-3 5-6 10-9 16-1 2-4 7-6 11-6 10-10 19-14 28-2 5-5 10-6 12-3 6-4 11-7 19q-6 12-9 21c-4 8-2 12 3 10 5-3 31-34 44-54 2-3 6-8 9-11 3-5 20-29 20-29 0-1 9-16 13-21q3-4.5 3-6l4-6c2-3 4-6 4-7 0 0 2-2 4-5s4-6 4-7c1-1 3-5 6-9s7-9 9-12c4-6 22-30 27-36 8-8 18-21 26-30 14-15 23-27 26-33 5-11 8-22 10-28 1-3 1-5 2-5 0-1 1-4 2-7l6-18c1-2 2-5 2-6s1-4 2-7c2-6 6-18 6-20 0-1 1-3 2-6 1-2 2-4 2-5s1-4 2-7l3-10c2-6 5-9 12-11 3-1 6-1 6-2 1 0 4-1 6-2 8-2 23-6 32-10 6-2 20-8 26-10 5-2 49-24 59-29 14-9 31-20 53-35 18-12 41-31 57-46 14-14 14-14 19-12 2 1 4 2 6 2 5 0 4 3-7 13-17 17-44 40-57 49-1 1-4 4-8 6-10 8-31 22-41 28-6 4-9 5-12 7-9 6-37 20-55 28-17 8-19 8-30 12-4 2-9 4-10 4-1 1-4 2-6 3-3 0-8 2-11 3-4 2-10 4-12 5-8 2-11 6-14 19-1 2-2 5-2 7-1 1-2 3-2 4 0 2-1 4-2 6-1 3-2 5-2 6 0 2-1 4-2 6-1 3-2 5-2 6s-1 3-2 6c-1 2-3 7-4 10-4 11-4 13-7 19-1 4-3 9-3 11-9 27-13 35-32 54l-38 44c-4 5-24 32-26 35-5 7-20 29-20 29-1 2-7 12-10 16-1 2-2 3-2 4l-2 2c0 1-2 3-3 4-1 4-4 10-7 13-1 3-8 14-11 18 0 2-1 3-1 4s0 2-1 2c0 1-3 6-6 11-3 6-6 11-7 12-6 7-3 13 4 8 2-2 18-14 29-23 16-12 46-31 57-36 1-1 3-2 6-3 2-2 7-5 11-7 3-2 10-5 15-8 12-6 39-20 64-31 3-2 10-5 14-6 3-2 9-5 11-6 5-2 15-6 21-9s19-9 28-13l12-6c2-1 8-4 13-6s9-4 10-4c0 0 30-15 39-20 12-6 21-11 32-18 7-3 13-7 14-7 1-1 5-3 9-5 3-3 8-6 10-7 3-2 15-9 25-17 3-2 7-4 9-5 4-4 16-13 30-24 7-5 13-10 14-10s25-23 38-36c25-24 56-63 74-93 1-2 4-6 6-10 2-3 5-9 8-13 2-3 5-8 5-10 1-1 4-6 7-11 2-4 5-9 5-10 1-3 4-4 6-3 1 1 3 2 5 3 20 11 59 42 72 60 4 6 14 21 15 23 0 1 1 2 1 3 6 7 10 32 10 61 0 17-1 25-7 36-2 5-4 9-4 10 0 2-8 12-18 24-4 5-14 13-24 21-3 3-6 5-6 6-3 2-12 8-21 12-6 3-12 6-13 7-2 1-5 2-6 2s-6 2-11 4-9 4-10 4-7 2-20 9c-4 1-8 3-8 3-1 0-3 1-5 2s-6 2-8 3c-6 3-12 5-20 7-2 1-8 3-11 4-4 2-9 4-11 4-7 2-12 5-14 6-1 1-3 2-4 2-1 1-4 2-5 2-2 1-6 3-9 4-8 3-12 5-15 8-2 1-5 3-8 4-11 6-12 7-13 8-2 3 1 4 13 4 7 0 12 1 14 2 1 1 5 2 9 3 4 0 10 2 14 3 3 2 8 4 10 4 2 1 4 2 5 2 0 1 2 1 4 2 1 0 6 2 11 4 12 6 22 6 38 2 6-1 12-3 13-4 4-2 12-4 23-5 10-2 26-8 42-15 2-1 4-2 5-2s5-2 10-4c4-2 8-4 9-4 3 0 26-14 33-21 4-3 5-4 16-9 12-6 20-13 39-34 9-9 18-22 18-26 0-1 1-3 2-6 1-2 2-6 2-8 0-3 0-5 1-6 4-4 11-20 11-24s4-18 6-23c5-9 5-27 0-35-2-2-2-5-2-16 0-14-2-23-6-32-1-1-2-3-2-5 0-1-1-4-2-7s-2-7-2-9c0-1-1-4-2-7-1-2-2-4-2-5s-2-6-5-11c-1-1-2-3-2-4-1-1-4-6-7-10-7-9-9-13-18-25-4-6-11-14-18-20-13-13-25-28-21-28 0 0 1 1 3 1 1 1 3 2 4 3 1 0 6 2 10 4 3 1 10 5 15 7s11 4 13 6c2 1 7 3 11 5 16 6 68 35 103 57 8 5 17 10 20 12s9 6 13 9c25 17 26 17 29 16 3 0 3-5 0-7-2-2-6-5-10-9l-14-14c-25-24-56-48-95-73-5-3-10-7-12-8s-8-4-13-7c-11-7-62-32-77-38-4-2-8-4-9-5-7-3-16-6-29-10-7-3-17-6-20-8-4-1-9-3-11-3-4-1-4-1-4-23-1-10-2-22-2-27-1-4-2-11-2-15s-1-10-2-15c0-5-2-13-2-18-1-4-1-11-2-15s-1-9-2-13c0-4-2-9-2-13-1-4-2-8-2-9 0-7-8-18-16-22-2-1-5-3-7-5-11-7-64-34-84-42-7-3-16-6-19-8-8-3-9-3-6-6 36-25 62-57 79-98 3-6 6-12 7-15 1-2 2-5 2-5 0-1 1-3 2-6 1-2 2-4 2-5s1-4 2-6c1-3 3-9 4-13a257 257 0 0 0 6-23c0-3 2-6 4-6 4 0 38-9 70-17 4-1 9-3 12-3 17-4 66-21 87-30 2-1 8-4 15-7 12-5 45-21 55-27 4-2 7-4 7-4 1 0 3-1 5-2 8-6 21-13 21-13 1 0 9-5 17-10 2-2 6-5 7-6 9-6 39-31 50-41 12-12 36-41 43-53 2-2 3-4 3-5 1-1 3-3 4-6 1-2 3-5 4-7 4-7 7-11 10-18 1-2 3-7 4-9 1-3 2-5 2-6s1-3 2-6c1-2 2-5 2-6s1-5 2-8c5-14 5-46 0-63-11-38-44-65-93-77-25-6-60-6-86 0-4 1-10 2-12 2-5 1-10 2-29 7-19 6-26 8-39 13-23 9-30 12-52 23-11 6-21 11-21 11-1 0-6 3-11 6-13 7-46 26-66 39-3 2-8 5-10 7-3 2-8 4-10 6-14 9-27 18-28 18-1-1-3-7-5-13-5-18-10-25-17-23-3 0-6-2-6-7-1-5-5-20-7-29-1-4-2-8-2-9s-1-4-2-7c-1-4-2-8-2-9s-1-5-2-9c-1-3-2-8-3-11-1-7-3-14-5-22-1-3-3-10-4-15-1-4-2-10-3-12s-2-7-2-9c-1-2-2-8-3-12-3-12-4-15-5-21-1-3-2-8-3-10-1-3-2-6-2-7s-1-5-2-8-2-6-2-7c0-2-1-5-2-9s-2-9-3-11-2-8-3-12l-4-12c0-2-2-6-2-8-1-1-2-3-2-4 0-2-7-11-13-17-7-7-17-13-40-25-4-2-8-5-9-5 0-1-4-3-8-5-3-2-9-5-11-6-2-2-7-5-11-8-17-12-43-32-59-47-37-34-74-62-97-74-12-6-18-8-34-12-10-3-40-4-49-2m37 33c16 2 31 8 46 16 2 2 5 4 7 5s14 9 19 14c1 1 7 6 13 10 5 5 15 14 22 20 8 6 15 13 17 14 2 2 8 8 14 12 22 19 30 25 47 36 3 2 14 8 17 9 11 5 17 8 23 10 29 13 43 25 48 42 3 13 6 25 9 39 3 16 6 26 11 47 1 2 2 8 3 12 0 5 1 9 2 9 0 1 1 5 2 9 1 7 3 15 5 24 1 3 2 8 3 12 0 4 2 10 2 12 1 3 2 6 2 7 0 2 1 6 2 9s2 8 2 9c0 2 1 5 2 8 0 2 2 8 3 12 1 9 1 10 5 23 0 4 2 10 2 13 1 3 2 8 2 10 2 7 1 8-7 13-9 4-11 5-11 3 1-1 0-5-1-9-1-3-2-7-2-9 0-1-1-5-2-8-1-4-3-11-4-17-3-12-5-24-8-34-1-5-3-11-3-14-1-7-5-24-9-41-3-13-8-35-9-41-1-2-2-7-3-11-1-3-2-7-2-8s-1-5-2-9c-2-8-5-19-8-32-2-6-3-11-4-11-1-1-5-1-10 1-16 4-18 4-47 4-24-1-31-1-45-3-27-5-28-5-61-15-3-1-7-2-7-2-1 0-3-1-5-2-3-1-5-2-6-2-2 0-13-5-17-7-6-3-9 0-3 3 1 1 5 4 9 8 3 3 11 9 16 13 16 13 45 42 55 56 12 17 24 36 29 47a553 553 0 0 1 40 98l13 46c2 7 4 16 5 20 0 3 2 8 3 11s1 5 1 6c-1 1-9 5-11 5-1 0-3 1-5 2-3 1-5 2-6 2-2 0-4 1-6 2-3 1-5 2-6 2s-4 1-7 2l-12 4c-4 1-11 3-14 4-7 2-9 2-24 6-13 3-17 4-23 6-4 1-9 2-11 2-5 1-15 3-27 6-4 1-10 2-13 2-11 2-26 4-32 6-4 0-12 1-17 2-5 0-11 1-12 2-1 0-8 1-15 1-7 1-16 2-20 2-18 4-19 3-21-6-10-32-37-68-67-90-15-11-39-25-43-25-1 0-3-1-4-2-2-1-6-2-8-3-2 0-6-1-7-2-18-6-60-10-75-7-3 1-9 1-13 2-5 1-11 2-13 2-2 1-8 3-12 4-14 5-17 6-26 11-19 9-32 18-44 29-18 18-33 38-41 57-2 4-4 9-5 11 0 1-1 3-1 4s-1 3-2 6l-2 4h-6c-3-1-8-2-12-2-4-1-11-3-15-3-12-2-24-5-34-8-9-2-14-4-18-5-5-1-5-2-4-36 1-17 2-62 3-99 0-36 1-70 2-74 0-3 1-16 1-28 1-11 2-23 3-27 0-3 1-9 2-14 0-4 1-10 2-14 1-3 2-6 2-7s1-3 2-6c1-2 2-4 2-5s1-4 2-6 2-5 3-6 2-4 3-7c2-2 3-4 4-5 0-1 2-3 3-6 2-2 4-5 5-6 3-5 7-11 10-16 5-6 18-26 25-37 5-8 20-32 26-42 3-6 6-11 7-13 1-1 4-6 6-10 6-10 6-10 16-25 13-20 33-35 50-38a100 100 0 0 1 42 4c1 0 3 1 6 2 2 1 4 2 6 2 1 0 3 1 5 2 1 1 3 2 4 2 2 0 8 3 24 10 19 9 39 15 54 16 4 1 5 2 1 4-1 1-5 4-10 6-14 8-36 16-40 13-3-2 0-3 7-3 11 0 8-3-8-6-5-1-12-3-14-4-9-3-28-10-31-11-10-5-23-8-28-7-1 1 11 14 16 17 1 0 1 1 1 2-1 0-4-2-21-17-8-7-12-4-12 8 0 26 26 56 55 63 16 4 22 5 30 3 2-1 7-1 10-2 10-1 20-5 33-11 4-2 9-4 11-5 3-1 6-3 8-4s4-3 6-3c2-2 15-10 21-15 3-2 7-5 8-6s6-4 10-7c12-10 20-16 25-19 19-13 35-23 46-28 3-2 7-4 8-4 8-4 29-9 41-9 3 0 10 1 16 2m731 358c2 1 7 2 12 2 26 5 54 22 62 41 6 13 7 15 7 18 0 1 1 5 1 8 2 6 2 17 1 25-1 3-2 7-2 9s-1 6-2 9-2 6-2 7c0 2-1 4-1 5l-3 6c-4 12-19 38-32 53-22 28-69 68-98 84-2 1-4 2-4 3-5 3-42 22-45 22s-3-2 0-3c1 0 7-4 12-7 13-9 17-11 32-20 19-11 36-24 56-43 16-16 32-34 38-42 2-4 6-10 8-13 7-11 17-33 23-52 5-13 5-38 1-50-6-16-23-32-44-38-30-9-78-5-111 7-1 1-7 3-12 5s-11 4-13 5c-1 0-3 1-4 1s-16 6-28 12c-17 8-24 12-52 28-6 4-11 7-12 7-4 3-22 15-25 18-3 2-5 3-5 3-2 0-36 25-59 43-3 2-11 8-17 12-12 9-41 32-61 48-6 6-14 12-16 14-3 3-11 10-18 16s-16 13-18 16c-3 2-8 7-12 10-3 3-12 11-19 17-15 13-30 26-54 48-19 17-54 52-53 53 1 0 11-6 18-13 10-8 49-32 53-32l8-4c15-7 24-11 45-18 12-4 22-7 22-7 2 0-2 4-9 8-48 29-79 50-111 73-27 19-28 20-40 28-50 33-96 57-136 72l-12 4c-18 7-52 18-58 20-2 0-6 1-10 2-16 4-22 6-24 6-1 0-4 1-7 1-2 1-8 3-12 4-19 3-29 5-38 7-5 0-12 2-14 2-3 1-10 1-15 2-6 1-14 2-19 3-5 0-15 1-23 2-8 0-20 1-27 2-19 2-138 2-154 0-6-1-18-2-25-2-8-1-19-2-23-3-5 0-16-2-23-3-8 0-17-2-21-2-4-1-9-1-12-1-4-1-9-1-11-2-3-1-9-1-13-2-5-1-11-2-14-3-4 0-9-1-12-2-4 0-10-2-15-3-8-2-12-3-26-7-47-13-95-39-132-72-15-12-41-40-53-55-19-24-43-58-59-85-4-6-9-13-10-15s-5-7-7-12c-3-5-6-9-6-10-1-1-2-3-3-5 0-1-4-8-8-15-10-19-33-66-36-76-1-2-3-6-4-9-5-12-6-16-9-26-2-5-4-11-5-12-1-3-5-17-7-24-1-2-2-6-2-8-1-4-1-26 0-26a1577 1577 0 0 0 69 48c10 7 22 15 26 18 8 5 11 8 22 14 2 2 9 6 16 10 10 7 30 19 33 20 1 1 3 2 5 3 3 2 20 12 35 21l10 5c4 2 9 5 12 7 5 3 79 40 80 40s4 2 8 3c12 6 22 10 31 14 9 3 10 4 6 7-2 1-7 4-11 7s-9 6-11 7c-2 0-10 5-18 11-20 13-20 13-33 20-11 7-18 10-28 15-5 2-7 5-6 8 0 2 3 3 9 1 2-1 11-4 20-7 8-2 16-5 18-5 2-1 6-3 9-4 23-8 41-16 64-29 7-3 13-6 14-6s6 2 10 4c18 11 38 18 82 31 19 6 48 13 59 14 11 2 12 3 19 13 21 29 59 52 100 61 13 2 57 3 72 1 18-3 22-3 26-5 2 0 7-1 9-2 2 0 8-2 12-3 3-2 9-4 12-5 2 0 10-4 16-7 27-15 26-14 29-13 4 1 7 0 17-5 3-2 8-4 11-5 4-2 20-9 41-19 4-2 13-6 20-9 6-4 12-7 14-7 1-1 3-2 5-3s4-3 4-3c2-2 25-12 39-16 2-1 5-2 7-3s8-4 15-6c11-4 33-14 41-17 2-1 7-3 11-5 8-4 43-21 55-28 4-2 10-5 13-7 3-1 10-5 16-8 9-5 15-9 33-18 4-2 12-7 18-10 10-6 15-8 10-4-7 6-41 38-71 67-31 30-43 43-72 75-30 34-37 40-52 57-24 26-61 62-64 62 0 0-4 2-8 5-7 4-8 6-8 8 0 3 1 3 4 3 2 0 27-13 29-14 1-1 4-3 8-5s9-5 12-6c2-2 7-5 11-8 25-16 55-42 118-105 25-25 50-50 55-54 5-5 14-13 20-19 18-16 20-18 37-34 20-18 32-29 37-33 2-1 8-7 14-12 6-4 12-9 13-11 2-1 11-8 20-16 38-30 59-45 94-70 15-10 57-37 65-40 1-1 7-5 14-8 21-12 42-22 61-30 5-2 10-4 12-5 1 0 3-1 4-1s3-1 4-1c5-3 15-6 20-7 2-1 5-1 6-2 1 0 5-1 9-2 3-1 8-2 10-3 2 0 8-1 13-2 4 0 10-1 12-2 6-1 40-1 45 0m-956 84c2 0 8 1 12 2 3 1 8 2 11 2 2 1 7 3 12 5 15 4 39 18 53 29 15 13 34 37 41 51 0 2 2 6 4 10 2 5 4 9 4 9 0 1 1 3 1 4 2 3 4 9 6 19 4 19 6 43 4 53-1 4-2 10-3 15-1 8-3 11-4 7-1-3-2-2-2 2-2 6-3 2-3-7 0-6 1-13 2-16 2-8 1-20-1-23-2-1-2-1-5 2s-3 3-3 16c-1 7-1 14-2 17-1 2-2 5-3 7 0 3-1 5-2 6 0 2-1 3-1 4 0 2-11 25-15 30-25 40-64 67-105 74-5 1-12 3-15 3-16 3-48-1-70-9-40-15-73-53-87-102-6-20-8-49-5-64 1-4 2-10 2-14 1-8 4-17 7-27 1-2 2-5 2-5 0-4 13-27 21-38 17-23 46-44 70-52 14-5 19-7 24-8 3 0 7-1 10-2 5-1 34-1 40 0m402 100c-1 1-17 6-21 7-3 0-6 1-7 2-3 2-13 3-13 1 0-1 3-2 8-2 3 0 6-1 8-2 1-1 4-2 6-2 1 0 6-1 11-2 6-2 9-3 8-2m-701 5c2 2 5 3 6 3 2 0 4 0 4 1 3 1 2 2-2 2s-13-5-13-7 1-1 5 1m28 8c1 1 5 2 7 2 6 1 8 2 8 3 0 2-14 1-15-1s-2-2-6-2c-5 0-8-1-8-2 0-2 11-1 14 0m629 0c1 1-2 2-9 2-6 0-8-1-6-2 1-1 15-1 15 0m-597 8c3 1 0 2-6 2-8 0-10-1-10-3 0-1 11-1 16 1m558 0c0 1-13 2-15 1-1 0-1 0 0-1 2-1 15-1 15 0m-538 3c5 0 6 1 5 2 0 2-2 2-9 1-11 0-13-1-13-3 0-1 1-1 7 0zm492 4c4 1 1 2-7 2h-8l6-1c7-2 8-2 9-1m-25 4c1 1 1 1 0 1-3 1-20 2-19 1 0-1 2-1 4-1 3 0 6-1 7-1 3-1 5-1 8 0m-29 5c-1 1-5 1-10 1-6 0-9 0-7-1s17-1 17 0m-36 5c-1 4-1 6 1 7 1 2 1 2-1 2-1 0-2-1-2-5-1-7-1-9 1-9 1 0 1 1 1 5m707 21c-1 3-23 20-24 20 0-1 1-2 3-4 2-1 7-6 12-10 8-7 11-8 9-6m-118 71s-1 1-4 2c-2 0-4 1-5 1-2 1-5 2-7 3-21 6-31 7-20 3 2-1 7-2 10-4 3-1 7-2 9-3 2 0 5-1 7-2 4-2 9-2 10 0m-644 9c0 1 0 3-2 4-1 2-2 3-2 4s-12 16-13 16c0-1 5-10 11-19 1-2 2-4 2-5 0-4 3-4 4 0m493 2c3 5 4 42 1 47 0 2-1 5-1 7 0 1-1 6-2 9s-2 7-3 9c0 2-1 4-2 5 0 2-1 3-1 4s-1 3-2 5c-1 3-3 7-4 9-8 20-12 30-18 41-2 2-4 7-6 10-5 9-14 23-24 36-21 26-38 35-61 32-9-1-13-3-15-6-1-2-4-3-6-1-1 1-1 6-1 17 0 9-1 18-1 20-1 2-1 13-2 24-1 10-2 21-2 24-1 2-1 8-2 12-1 5-2 11-2 13-1 3-2 7-2 8 0 2-3 12-6 21 0 2-1 6-2 8-1 4-13 28-17 33-2 3-4 7-5 8-12 17-22 29-25 29a84 84 0 0 0-36-6c-15-1-23-2-25-4-1 0-3-1-6-1-20-3-21-3-27-2-5 1-8 1-12 0-22-4-26-5-29-11-2-2-5-8-8-14-4-5-7-10-8-11-3-6-9-8-9-3 0 1 0 3 1 3 2 3 10 26 10 29 0 2-1 3-6 3-7 1-8 0-21-12-15-15-25-23-27-21-2 1-1 5 6 13 7 9 13 18 13 19-1 0-22-2-25-3-3-2-22-5-39-6-7-1-16-3-19-3-8-2-61-2-71-1-13 2-25 4-26 5s-7 2-19 6c-4 1-8 2-9 3-9 4-59 4-77-1-13-4-21-6-23-7-7-3-32-8-42-8-9 0-10 1-17 7-3 3-6 5-7 6-3 1-12 0-16-2-9-3-12-3-15-2-2 1-10 2-19 3-3 1-5 1-6 0s-5-9-5-11c0-1-1-4-2-8-1-3-3-9-4-13s-3-9-3-11c-1-1-2-5-2-7-1-2-2-8-3-12s-2-9-3-12c0-2-1-6-2-8 0-2-2-9-3-14l-4-19c-4-18-4-21 2-18 1 1 3 2 5 3 2 0 6 2 9 3 12 4 38 11 53 14 3 1 6 1 8 2 3 1 16 2 25 3h9v10c1 9 1 11 4 17 7 14 20 24 42 32 10 5 13 6 18 13 8 10 18 15 35 17 24 3 45-9 41-24-1-4 0-6 8-7 6 0 17-3 23-6 3-1 14-4 23-6 14-3 28-12 39-25 4-4 7-8 7-9s1-3 2-3 1 0 0 2c-2 7-2 7 16 15 8 5 21 11 28 14 6 3 16 8 20 11 15 10 17 8 5-5-14-13-31-36-34-46-1-3-1-5 0-9 4-10 11-14 54-25 18-6 29-9 31-10 1 0 6-2 12-3 6-2 14-4 18-6 3-1 10-3 14-4 20-7 36-12 49-18 8-3 14-6 15-6s30-13 43-19c18-9 21-9 25-5s5 10 3 23c-1 7-2 18-2 27-1 9-2 17-3 18-3 8-2 15 2 10 1-2 4-5 7-7 13-13 46-65 58-91 2-6 5-12 6-15 1-2 2-5 2-5 0-1 1-3 1-4 2-5 6-15 7-20 1-2 2-5 3-7 0-1 1-4 1-5s1-4 2-7c1-2 2-6 2-9 1-2 2-6 3-8s2-5 2-6c0-3 1-5 2-4 1 0 1 2 1 3 0 5 1 5 7 5h5l3 7c3 7 3 9 3 18l1 11-5 7c-2 4-6 10-8 13-4 5-5 9-2 11 4 3 38-11 47-18 7-7 13-20 13-30 0-6 0-7 2-8 1-1 3-3 4-5 5-10 7-12 9-8 1 4 6 4 11-1 4-4 11-17 11-21 0-1 1-3 1-4 1-1 2-5 3-9s2-8 3-9 0-38-1-42c-2-3 1-2 3 0m-29 15c1 6 0 9-2 4s-1-9 1-9c0 0 1 2 1 5m-6 12c1 4 0 21-2 22-1 0-1-3-1-12 0-11 1-15 3-10m10 17c0 11 0 15-1 17-2 2-2 1-2-15 0-10 0-18 1-18 1-2 2 2 2 16m-13 19c0 5-2 9-4 9 0 0 1-10 2-13 1-4 2-2 2 4m9 12c0 2-1 5-2 5-2 0-1-14 1-15s2 3 1 10m-152 92c0 10-1 12-2 10s-1-14 1-20v-3l1 3c1 2 1 6 0 10m-4 32c-1 0-1 1-2 1s-1-12 1-14c1-2 1 11 1 13m-4 12c-1 6-3 7-3 2 0-6 2-11 3-8zm-3 12c-1 2-2 5-2 6-1 2-2 4-2 7-1 2-2 5-2 7-1 2-2 5-3 6-1 3-1 3-2 2-1-2-1-3 1-6 1-2 2-6 2-7 0-2 1-5 2-6 1-2 2-4 2-7 0-4 1-7 3-7 1 0 1 2 1 5m-500 47c1 2 1 2 1 0 0-3 1-3 6-2 4 1 10 1 17 0s15 0 18 2c2 2 14 3 33 3 51-1 53 0 75 13 10 6 11 7 3 26-3 8-5 9-11 5-19-12-44-8-72 11-16 11-23 13-39 9-11-2-20-7-30-17-5-5-9-9-10-9-3 0-6 5-8 11-1 6-2 7-6 4-4-4-5-18-1-36 2-9 4-10 4-2 0 6 3 16 5 19 5 5 9-7 9-26 0-14 2-18 6-11m632 13s2 1 5 2c16 5 54 25 67 36 5 4 5 7 2 15-1 3-3 8-4 10-6 14-23 46-33 60-9 13-9 14-17 25-10 12-17 20-19 21-3 1-10 0-12-2-1-2 0-3 7-12 14-18 25-32 31-42 1-2 4-7 7-11 2-3 4-6 4-7l4-6c2-4 4-7 4-8 0 0 1-1 1-2 2-1 4-4 12-21 4-8 4-10-2-14-2-2-8-6-13-10-5-3-17-12-27-19-23-16-23-16-20-16 1 0 2 0 3 1m-438 7c0 5-1 11-2 11s-1-1-1-2v-7c0-6 2-7 3-2m386 27c3 8 5 18 8 26 1 4 3 9 3 11 1 3 2 6 3 8 0 2 1 6 2 9s1 6 2 7c0 1 1 3 1 6 1 2 2 7 3 10 3 7 3 13 0 17-1 1-4 6-6 10-4 9-11 18-14 19 0 1-4 0-8-1-10-4-23-7-24-7-3 0-2-1 0-5a153 153 0 0 0 18-47c1-3 2-9 3-13 0-3 1-7 1-8 1-1 2-12 3-23 1-29 2-31 5-19m-386 100c2 3-7 16-14 21-6 4-7 3-9-4s-3-9-5-9-5 3-6 7c-2 9-9 18-16 20-5 1-6 1-6-2s-2-6-5-6c-1 0-5 3-9 6l-6 6-11 1c-18 1-69-1-82-3-19-3-30-11-34-27-1-5 2-5 16-2 4 0 10 2 14 2 3 1 10 1 14 2 22 3 57 4 67 1 1 0 5-1 9-2 7-2 20-5 26-7 5-1 9-2 26-4 8-1 31-1 31 0m-337 5c4 1 9 4 12 6 6 4 18 17 21 22 2 4 1 5-2 2-2-2-3-2-14-3-9-1-12 0-13 1-2 2-6-1-29-21l-9-9c0-2 27 0 34 2m40-1c18 2 25 7 36 22 4 7 9 17 8 18-1 2-5-2-5-5 0-2-1-2-6-2-6 0-7 0-5 3 1 2 0 3-5 3-4 0-4 0-18-14-13-11-23-23-23-25s1-2 18 0m319-1c2 1-1 8-5 8-2 0-2 0-1-2 2-7 3-8 6-6m-400 8c7 4 16 12 21 19l2 3-4-1h-6c-2 0-17 1-18 1-2 0 4 6 6 7 1 0 2 1 2 1 0 1-4 1-5 0-1-2-7-6-7-6-1 0-8-5-17-11-8-6-17-13-19-14-5-4-4-4 17-4h20zm546-3c10 3 18 9 26 17 4 5 11 15 11 18 0 1 1 3 2 3 2 3 3 6 1 6-1 0-2 0-2-1-1-1-3-1-4-1-6 0-8-1-3-2s6-2 3-5c-2-3-4-3-15-5-15-2-15-2-16 0s-2 1-30-26c-5-5-4-6 9-6 8 0 12 0 18 2m-409 2c6 1 12 5 15 9s7 13 7 16c0 1 1 2 2 3 2 2 1 4-2 4s-3 0-2-4c0-6-1-7-8-6-6 0-7 1-7 3 0 5-2 4-19-15-5-6-9-11-9-12 1-1 17 0 23 2m364 0c8 4 30 26 30 30 0 1-1 0-3-1-5-3-26-3-26 0s-2 3-7 0c-6-3-14-9-22-16-3-2-7-6-9-7-6-4-5-5 23-8 6-1 9 0 14 2m-560 3c12 6 33 22 31 24-1 0-5-1-10-2-11-1-21-1-24 1-1 1-2 2-3 2s-16-10-20-13c-2-2-4-3-5-4-1 0-3-2-5-3-2-2-5-3-5-3-2 0 0-3 2-4 1-1 9-1 18-1 14 1 16 1 21 3m654-1c11 3 16 6 24 14 7 7 13 17 13 21 0 3-2 2-4-1-1-2-2-2-6-2-6 0-15-1-17-2s-2-1-3 1l-1 3-5-5c-2-3-6-7-8-10-1-2-6-8-9-12-4-4-7-8-6-8 1-2 14-1 22 1m42 3c16 4 22 7 30 15 6 7 16 28 12 28-1 0-2-2-3-3-1-4-4-5-10-7-2 0-5-1-7-2s-5-2-5-2c-1 0-3-1-4-2l-3-2-1 2c-2 2-2 2-11-11-4-5-7-11-9-12-3-5 2-6 11-4m-753 2c9 3 24 12 29 18 4 5 4 5-1 3s-24-2-28 0c-2 1-9-1-20-7-2-2-8-4-11-6-4-2-7-4-7-4 0-2 5-3 10-3 2 0 6 0 9-1 5-1 14-1 19 0m564 1c3 1 7 3 11 5 10 7 25 23 18 20h-9c-3-1-8-1-10-2-3-1-4-1-6 0-3 2-7 0-16-8-13-10-15-14-9-14 1 0 5-1 8-1 8-2 8-2 13 0m238 4c6 0 16 4 22 7 5 4 14 15 16 20 0 1 1 4 2 5 4 6 2 11-3 8-1 0-5-1-8-2-15-2-16-2-17 0s-2 1-7-9c-6-10-7-13-13-21-5-7-5-11-1-10 2 1 5 1 9 2m-843 8c15 7 31 17 29 18 0 0-7 0-14 1-14 0-15 0-13 2 0 1 1 2 1 2 0 1-8-2-10-4-1 0-3-2-5-2-2-1-7-4-11-6-5-3-10-5-11-6s-3-1-4-2-2-1-3-2c-5-1 0-3 16-5 8-1 16 0 25 4m569-3c2 2 4 3 5 3s16 13 18 16l1 2h-13c-13 0-14 0-14 3 2 3-4 1-12-5-15-10-18-13-15-14 1-1 4-2 7-2 15-6 18-6 23-3m328 6c11 2 16 5 23 13 8 7 13 17 13 23 0 4-3 5-5 3-1-1-3-2-5-2-2-1-7-2-11-4-6-1-9-2-9-1-1 3-4-2-10-13-2-3-5-8-8-13-3-4-5-8-5-8 0-1 6-1 17 2m-950 5c13 4 28 12 38 21 5 4 5 4 3 4-2-1-5-2-6-3-3-2-4-2-18-3-14 0-15 0-13 3 3 3-3 0-21-9-11-5-19-10-19-10 0-1 4-2 7-3 4-1 7-2 8-2 1-2 13-1 21 2m994 2c13 3 18 5 24 10 5 4 12 14 12 16 0 1 0 2 1 2 2 1 7 21 7 23-1 1-1 1-4-2-2-2-4-3-9-4-3 0-8-2-11-3-6-4-7-4-7 1 0 2 0 3-1 2-1 0-1-1-1-3 0-1-1-3-2-4s-7-12-10-21c-1-2-4-7-6-11-5-6-6-8-5-8s6 1 12 2m-411 2c10 6 19 13 18 15-1 0-3 0-6-1-5-1-6-1-8 0-2 2-12-3-18-8-4-3-3-4 2-6 6-2 7-2 12 0m-628 7c3 1 7 3 8 4 2 0 3 1 4 1 4 0 20 10 20 13 0 0-7 1-15 1-11 0-15 1-17 2-3 1-3 1-11-3-5-2-9-4-10-4l-4-2c-2-1-6-2-8-3-9-3-6-6 7-8 3-1 8-1 11-2 6-1 7-1 15 1m1087 5c14 2 31 13 37 24 3 7 6 18 6 24s-1 7-3 2c0-3-1-4-11-7-5-2-11-3-13-3-3 0-5-1-5-2-3-5-19-39-19-39 0-1 1-1 1 0 1 0 4 1 7 1m-580 1c79 2 92 4 103 11 6 3 5 4-3 6-21 4-30 4-69 4-54 0-71-1-82-7-7-4-15-12-14-14 1-1 19-1 65 0m-246 7c6 0 6 1 1 3-17 7-52 26-60 32-3 3-7 5-8 6s-4 3-7 5c-2 1-4 3-5 3-3 1-22 16-35 26-4 4-11 8-14 10-3 3-10 9-14 14-9 8-18 17-29 25-3 3-8 8-11 12-4 4-10 10-14 13s-11 10-16 15c-4 6-11 13-13 15-6 5-19 18-30 30-5 5-10 10-13 12-2 2-7 7-10 11-7 9-6 9-21 20-6 4-15 12-20 18s-12 12-14 14c-12 7-15 10-20 15-8 7-9 8-18 12-5 2-11 6-15 7-4 2-8 4-9 4s-2 0-3 1-15 5-23 6c-4 1-15 1-24 1-18-1-17-1-30-7-3-1-7-3-9-4-11-4-31-23-37-36-7-13-7-13-7-35v-21l5-9c10-18 13-21 24-35 4-4 10-12 14-17 7-10 13-16 21-22 3-1 12-7 21-13 16-11 24-16 30-19 2-1 6-3 8-5 12-7 45-23 61-29 1-1 5-3 7-4 3-1 5-2 6-2l4-2c12-5 20-9 26-10 3-1 9-3 13-4 23-9 56-20 59-20 1 0 3-1 5-1 1-1 5-3 9-3 3-1 9-3 13-4 3-1 10-3 14-4 4 0 10-2 12-2 5-1 17-4 26-5 7-1 27-5 41-7 12-3 27-5 38-6 6-1 13-2 17-2 3-1 14-2 24-2s20-1 22-1c1 0 5 0 8 1m-304 3c16 5 36 16 30 16-1 0-5 1-8 2-5 2-8 2-13 1-4 0-6 0-6 1 0 2-8 0-23-7-4-2-9-4-9-4-2 0-5-2-5-3s6-4 11-5c1-1 5-2 8-2 2-1 5-2 5-2 1 0 5 1 10 3m377 0c4 1 20 1 36 1h28l5 7c7 7 16 13 19 13 4-1 5-3 2-8-2-2-3-5-3-7-1-6 2-5 9 2 3 3 7 6 9 7 6 3 22 6 50 7 11 1 23 1 26 2 10 1 101 1 110-1 4 0 13-2 19-2 6-1 20-3 30-5 20-3 29-4 32-2 3 1 19 17 20 19v5c-2 8 3 11 7 5 4-7 18-23 20-23 1 0 1 1 1 2 2 5 16 11 35 14 13 2 16 2 16 1 0-2-23-25-28-28-2-1-4-3-4-4s35-2 40-1c1 0 5 1 8 1 3 1 9 2 14 2 17 3 22 4 31 5 5 1 10 1 11 2 3 1-38 37-66 58-16 12-67 46-85 57-3 2-7 4-9 5-1 1-4 3-6 4s-5 3-7 4c-34 20-60 34-71 37-7 2-11 3-31 6-9 2-77 2-85 0-3 0-10-1-15-2-6-1-13-2-15-2-3-1-8-2-12-2-17-4-31-8-39-13-6-3-7-5-20-23l-16-25c-1-2-3-4-3-5-9-14-23-33-33-46-3-4-7-9-9-12-3-5-26-34-38-49-5-7-5-7 2-7 4 1 10 1 15 1m-42 6c3 2 11 16 11 17 0 2-3 1-4-1-1-1-1-1-7 0-3 1-7 1-9 1-3 0-5 2-3 4 2 1 2 1 0 1-2 1-3 1-4 1-1-1-6-2-12-2-11-2-15-3-15-5 0-1 10-6 11-6s5-2 10-5c14-8 18-9 22-5m847-1c18 4 27 13 33 34 2 5 3 11 4 15v6l-3-2c-2-1-7-4-11-5s-8-3-10-4c-2-2-2-2-3 0-2 3-2 3-9-20-2-5-4-10-5-12-6-10-6-15-2-14 1 1 4 1 6 2m-1221 10c3 1 10 4 15 7 5 2 9 4 10 4s5 4 5 5c0 0-3 1-6 1-4 1-9 2-11 3s-5 1-8 1c-6-1-8 0-5 2q6 4.5-6 0c-8-2-22-7-30-10-11-3-11-3 2-7 28-9 26-9 34-6m1261 2c18 8 34 19 35 27 1 1 2 3 3 4 2 3 6 29 5 41 0 10 0 11-3 9-1-1-1-2 0-4s0-14-2-15-11-7-15-10c-2-2-4-3-5-3s-2 0-3-1h-2c-1 0-2-3-5-13-1-4-3-10-4-12-1-3-2-5-2-6 0 0-2-4-3-8-5-10-5-11 1-9m-870 16c0 1-1 1-3 1q-6-1.5-3-3c0-1 1-2 1-3 0-2 0-2 2 0s3 4 3 5m-47 3c5 1 11 3 13 3 1 1 3 2 5 3 1 0 1 0-1 1-1 0-4 1-5 2-1 0-6 1-12 2-9 1-11 1-12 3-2 2-2 2-6 2-15-3-26-4-30-4-5 0-7-1-4-4 4-3 16-9 20-10 5-1 21 0 32 2m-387 1c6 1 16 4 22 8 5 2 5 2 4 4-2 0-4 1-6 2-19 2-26 5-26 7 1 1-5 1-12-2-9-3-15-5-20-6-9-2-10-5-3-8 2-1 5-2 8-3 2-1 5-2 6-2s3-1 5-1c2-1 14-1 22 1m1354 4c17 6 32 24 35 42 1 7 0 22-3 32-1 4-2 9-2 12 0 6-1 6-3 1-2-4-2-4 0-6 3-3 3-8 0-9-2-2-7-10-10-18-1-3-3-6-3-6-1-1-2-3-3-4s-2-2-3-2c-2 1-2 0-6-17-2-8-5-19-8-25 0-2 0-2 6 0m-1396 18c2 1 6 2 9 2 11 3 19 7 18 9-1 0-5 2-11 4-7 2-9 3-10 5-1 3-10 2-26-3-3 0-8-1-12-2-8-1-13-2-13-4 0-1 16-9 24-11q10.5-3 21 0m399 1c9 3 10 4 3 5-2 0-5 1-6 1 0 1-2 1-5 2-11 3-15 6-9 7l3 1h-3c-2 1-7 1-12 0-9-1-29-3-33-3-2 0-2 0 0-2 0-1 2-2 3-2l2-2c2-2 9-5 17-7 9-3 28-3 40 0m-434 23c2 1 6 2 9 2 5 1 13 4 13 6 0 1-19 7-27 8-3 1-4 2-5 4l-1 3h-49c-3-3 21-17 36-22 7-2 18-3 24-1m393 2c14 2 15 3 7 8-4 3-6 3-12 4-16 2-17 6-1 6 7 0 8 0 6 1-3 1-59 1-60 0-1 0 5-6 10-9 8-6 16-10 20-10 2 0 5-1 6-1 3-1 14-1 24 1m1094 14c6 6 10 10 16 20 4 8 2 25-6 38-9 17-9 17-12 10-3-6-3-8 1-5l2 3 2-2c3-3 2-5 0-10-2-4-9-12-10-12-2 0-1 8 1 10 2 4 3 8 1 8-1 0-2-2-2-4-1-1-2-4-3-5-3-7-4-25-2-42s2-18 12-9m-41 12c0 1 2 3 4 6 2 2 4 4 4 5-1 1-3-1-7-6-4-6-5-7-2-7 0 0 1 1 1 2m-1080 5c7 3 7 2-12 12-7 3-10 5-10 6 0 3-2 3-26 4-27 0-27 0-11-13 8-5 14-8 22-9 5-1 9-1 9-2 1-1 24 1 28 2m-390 2c3 0 5 1 5 1s-2 1-5 3c-2 1-6 2-8 4-19 10-21 11-14 12 2 0 4 1 4 1 0 2-6 3-24 4-18 2-34 6-40 10-1 1-1 1-2 0s0-3 5-9c20-24 42-31 79-26m1545 30c2 3 5 9 6 12l2 7-2 6c-2 6-7 13-18 24-8 8-10 9-10 4 0-1-1-4-1-6-3-5-2-8 0-16 3-8 4-10 9-20 2-3 4-8 6-11 1-3 3-6 4-6zm-1188 2c1 1 0 1-2 3-2 0-6 3-9 5s-6 5-8 5c-2 1-3 2-2 3 0 2-1 2-4 3-4 1-46 2-46 2 0-2 2-5 10-11 12-8 16-10 24-11 10-1 36-1 37 1m-388 4c2 0 3 1 3 1 0 2-19 20-20 20-2 0-1 3 1 4 1 1 1 1 0 1-1 1-4 1-6 2-3 1-8 2-10 3-9 2-30 12-36 17-7 6-8 3-3-12 3-13 7-17 18-23 16-9 23-12 37-13 11-1 12-1 16 0m366 30c2 2 2 4 0 5-1 0-1-1-1-2 0-6-6-4-13 4-2 2-4 3-7 3-6 1-13 6-13 8 0 1 0 2-2 2-4 1-45 1-45 0 0-4 14-15 24-19 9-3 13-4 35-4 19 1 21 1 22 3m1226 7c11 17 9 28-9 42-6 4-23 14-25 14-3 0-3-21 0-27 2-5 28-33 31-33 0 0 2 2 3 4m-1612 5c3 2 4 5 2 5-1 0-2 0-2-1s0-1-1-1-1 2-1 5c2 8-4 15-24 29-3 2-10 8-15 13-5 4-11 9-13 10-1 1-3 3-4 5-2 5-4 1-3-13 0-18 2-24 16-35 8-6 26-16 30-16 1 0 3-1 5-1 3-1 6-1 10 0m335 19c13 3 16 5 8 5-4 0-6 1-13 6l-10 6c-1 0-1 1-1 2s-1 2-2 3c-4 1-45 1-46 0 0-2 12-13 19-16 6-3 9-4 17-5 6-1 11-1 11-2 1 0 13 0 17 1m-344 25c1 2 1 7 1 15v12l-5 7c-2 4-5 8-7 10-7 10-16 29-19 42 0 2-1 3-3 1 0-1 1-2 1-3 3-2 3-14 1-17-2-2-6-15-7-21q-1.5-3-3-3c-2 0-1-7 3-15 3-6 17-21 21-23 1-1 5-2 8-4 6-3 8-4 9-1m1625 2c10 6 9 25-3 30-3 2-9 4-13 4-4 1-10 3-13 4-4 1-7 2-8 2s-3 1-4 1c-3 3-7 3-6 0 1-8 4-16 10-21 7-7 25-20 29-21s4-1 8 1m-1306 7c4 1 5 2 2 3-1 1-3 3-4 6-3 4-9 7-16 7-3 0-6 3-7 5 0 1-8 1-25 1l-24-1 3-3c8-9 25-17 40-18 9-1 26-1 31 0m-307 38c2 4 5 8 5 10 1 4-1 19-2 22-1 2-3 17-5 30-1 9-2 10-5 6-1-2-2-3-2-3-2 0-5-4-5-7 0-2-2-7-4-12-2-4-4-9-4-10-1-3-1-3-3-2-7 2 6-30 16-39 3-3 4-2 9 5m269-6c5 1 10 1 10 2 2 2-16 13-23 14-6 0-12 3-11 4 1 2 23 1 24 0 0-1 2-2 4-3 1-1 3-2 3-2 0-1 1-1 2-1s3-1 3-2c1-1 2-2 3-2 2 0 1 2-3 5-2 1-5 3-6 4s-3 2-4 2l-4 2c-2 1-5 1-27 1-28 0-44-1-44-2 0-2 24-18 28-18 1 0 3-1 6-2 7-3 24-4 39-2m580 0c1 0 2 1 2 3s1 4 2 5c1 2 2 4 2 5 0 4-2 3-3-1-1-2-2-5-3-6s-2-3-2-5 0-2 2-1m-903 22c-1 1-2-3-2-9 0-10 1-10 2 0 1 5 1 9 0 9m1659-16c-3 2-3 2-12 12-8 10-8 12-3 11 5 0 5 2 1 3-1 0-5 1-8 2-6 2-38 4-39 3s-1-2 1-3c1-2 2-3 2-4 0-3 17-15 22-15 0 0 1-1 2-1 3-3 24-9 32-9 3 0 3 0 2 1m-992 6c0 1 1 4 3 7 1 2 2 6 3 7 0 2 1 3 1 4 1 0 1 1 1 2s1 4 3 6c1 3 2 6 2 7s1 2 2 4c4 7 11 30 8 29 0-1-1-2-1-3s-1-3-2-5-2-5-2-6c-1-3-9-22-13-32-3-7-5-13-7-19-1-3 1-4 2-1m996 6c0 2-5 10-7 10 0 1-2 1-3 0-2-1-2-1 2-3 2-1 4-3 4-4 0-2 2-5 3-5s1 1 1 2m-1590 14c1 1 4 3 6 5 10 7 12 10 12 17s3 25 6 35c1 4 2 7 2 8s1 2 2 3c0 1 1 2 1 2 0 1 1 3 2 3 2 3 3 5 1 5-3 0-6-4-6-7 0-2-1-4-2-5s-2-3-2-4c-1-1-3-2-4-3-2-1-7-5-12-9-9-10-11-10-11-2v6c-1 0-2-2-2-7 0-4-1-7-2-8 0-1-1-3-1-5 0-6 3-27 5-30 0-1 1-3 1-4 0-3 3-2 4 0m207 1c2 1 8 2 12 3q18 1.5 3 3c-4 1-22 9-30 14-3 2-4 3-3 4 1 3-4 3-24-2-5-1-11-3-13-4-2 0-7-2-9-2-2-1-4-2-4-3 0-2 19-10 27-11 4-1 8-1 9-2 2-2 26-1 32 0m1359 12c5 0 7 2 2 2-3 0-3 1-5 3-3 7-15 17-20 17-2 0-2 0-2 2 2 3-10 4-20 1-4 0-10-1-16-1-15 0-16-1-9-7 6-6 13-10 18-11 2 0 5-1 6-2 1 0 7-1 13-2 6 0 12-1 15-2 5-1 10-1 18 0M93 1722c0 7 0 7-1 6-2-1-2-3-2-9 0-9 2-7 3 3m1621-7c0 3-4 11-6 13-4 4-8 7-10 7s-1-2 2-3c3-2 7-6 7-8l2-2c1-1 2-2 2-5 0-4 2-5 3-2m-1543 4c1 1 4 2 6 3 5 1 12 4 15 8 2 3 5 8 18 29 1 2 3 5 5 8 3 4 3 7 0 3-5-5-5-5-17-5-6-1-13-1-14-2-1 0-2 0-2 1s0 2 1 2 2 1 2 2q1.5 3 3 3c2 1 3 4 1 4q-1.5 0-6-6c-10-9-15-23-17-44 0-9 0-10 5-6m101 4c2 1 6 2 10 2 4 1 9 2 11 3 3 1 6 2 7 2 2 0 14 5 13 6 0 0-2 1-16 5-8 2-18 2-22 1-2-1-2-1-1 1 1 4-4 4-14-2-5-3-13-6-17-8-8-5-9-6-1-7 2-1 5-1 7-2 3-2 17-2 23-1m-58 6c2 1 7 3 12 5 4 2 8 4 9 4s2 1 3 1c1 1 2 2 4 2 2 1 3 2 4 3 1 0 2 1 2 1 1 0 4 2 7 4s8 5 12 7c5 3 5 4 3 4s-6-1-10-2c-8-3-33-2-35 0-1 2-10-7-13-15-2-3-4-7-5-8-3-4-3-8 0-8 1 1 4 2 7 2m-117 7c0 1 2 4 4 6 4 4 5 5 3 5-3 0-10-10-10-14 0-2 0-2 2-1 0 2 1 3 1 4m1546 9c27 1 31 3 21 9-2 1-7 4-10 6-4 2-8 4-11 5-4 0-4 0-3 2 3 2 2 3 0 3-3 0-19-4-22-6-2 0-4-1-6-1-1 0-4-1-6-2s-5-2-7-2c-8 0-13-5-7-6 1 0 4-1 6-2s4-2 5-2 2-1 4-2c2 0 6-2 9-2 4 0 7-1 7-1s9 0 20 1m37 8c0 2-6 6-8 6-1 0-1-1 1-2 1-2 2-3 2-4 0 0 1-1 3-1 1 0 2 1 2 1m-1542 6c1 2 4 5 7 7 5 4 6 5 3 5-2 0-15-12-15-14s2-1 5 2m1451 8c4 1 9 2 12 3 13 2 33 11 24 11 0 0-3 1-6 3-6 2-20 7-27 8q-7.5 0-3 3c2 1 3 4 1 4-1 0-26-8-29-10-1-1-13-4-23-7-5-2-6-4-2-5 1 0 4-1 6-1 3-2 11-5 18-6 3-1 5-2 6-2 1-1 9-3 14-3 1 0 6 1 9 2m-1366 8c0 1 1 2 1 2 0 1-26 1-28 0s1-1 14-1c5 0 8 0 8-1 1-1 3-1 5 0m1306 14c4 1 10 2 12 3 3 1 6 2 7 2 2 0 3 1 4 1 1 1 3 2 4 3 3 0 10 4 11 5 2 3-27 8-36 6-7-1-12 0-6 2q3 1.5 3 3c0 1-2 1-5-1-9-4-30-10-39-11-12-1-14-2-6-4 3-1 6-2 6-3 2-1 16-4 27-5 11-2 10-2 18-1m-43 23c2 0 6 1 8 2 6 0 26 11 26 13s-13 0-16-2-12-2-25 0c-5 1-7 1-12 0-4-1-9-2-12-3-3 0-7-1-9-2-3 0-5-1-6-1-8 0-5-4 3-6 2 0 6-1 7-2 5-1 30-1 36 1M1105 246c-11 2-19 5-21 7-1 0-2 1-3 1s-11 7-16 12c-27 25-23 55 10 80 8 7 30 19 45 25 3 1 7 3 10 4 8 4 14 6 22 9 5 1 10 3 11 4 2 0 4 1 5 1s4 1 7 2c2 1 4 2 6 2 1 0 4 1 7 2s6 2 7 2 5 1 8 2 9 3 14 4l15 4c3 0 9 2 12 2 2 0 7 1 10 2s11 2 17 2c6 1 15 1 19 2 8 1 30 1 40 0 4-1 11-1 16-2 4 0 10-2 13-2 2-1 6-2 7-2 4 0 7-3 7-5 0-3-1-4-7-6-2-1-5-2-5-3-1-1-6-4-11-7-6-3-12-6-15-8s-5-4-6-4c0 0-2-2-5-3-2-2-6-4-8-5s-4-3-6-5c-4-4-10-7-14-9-2 0-7-2-10-4-4-1-10-3-12-4-19-5-29-7-36-8-4 0-8-1-9-1-2-1-9-2-15-3-23-3-37-6-38-7s-2-2-4-2-3-1-3-2c-1-1-2-2-5-3s-5-2-5-2c-1 0-4-1-6-2-9-4-21-13-26-20-3-5-6-19-5-24 1-7-2-5-12 5 0 1-1 3-1 4s-1 3-2 4-2 1-2-1c0-4 4-11 13-20 8-8 10-9 16-11 2-1 3-5 0-7-2-2-20-2-29 0m4 54c0 3 8 11 11 11 1 0 2 1 2 1 0 4-5 1-12-6-2-3-4-5-4-7 0-3 2-2 3 1m167 62c6 1 14 2 17 3 2 0 6 1 8 1 4 0 6 2 3 3-3 0-9-1-11-3-2-1-8-1-29-1-16 0-26 0-26-1s4-2 13-2c3 0 7-1 9-1s9 0 16 1m-47 5c-3 3-8 3-12 2-7-2-5-4 7-4 7 0 7 1 5 2m125 29c3 1 1 2-3 2s-8-1-8-2 7-1 11 0M863 683c-26 2-55 16-78 37-22 21-39 56-42 84-1 5-1 11-2 13-1 5-1 24 1 30 0 4 1 8 1 10 0 8 6 25 14 41 7 14 15 25 28 38 12 12 17 15 29 21 22 12 39 15 67 15 16-1 19-1 34-6 47-13 92-66 99-115 1-4 2-10 2-13 1-8 1-22 0-32-1-5-2-10-3-13-1-11-9-31-17-43-8-13-10-16-18-25-31-33-68-46-115-42m49 28c9 2 16 6 20 8 7 5 2 13-17 30-22 18-44 42-44 45 0 1-2 4-4 8l-4 8c0 1-1 3-2 4-3 7-6 25-6 35 2 33 17 57 46 74 8 4 11 8 7 7-1-1-5 0-9 0-18 3-21 3-33 2-16-1-27-4-37-8-5-3-12-4-10-2s3 5 2 5c-3 0-20-14-26-21-7-9-18-29-18-32 0-1-1-3-2-6-1-2-2-4-2-5s-1-6-2-10c-1-6-2-12-2-23 0-57 36-105 90-119 16-4 39-4 53 0m45 65v5l-2-2c-2-3-2-4-1-7 2-4 3-2 3 4m-24 19c2 4 5 9 8 17 3 10 4 35 1 42-1 3-3 6-3 7-2 8-17 27-26 32l-4 3-3-2c-3-2-8-10-9-14-1-1-2-4-2-7-3-5-2-27 0-33 0-2 1-5 2-7 2-8 14-25 23-33s10-9 13-5m57 10c1 8 0 13-1 7-2-8-2-17-1-17 1 1 2 3 2 10m-17 15c0 7-1 11-2 7-1-1-1-6-1-10 0-6 0-6 2-5 0 2 1 5 1 8m17 17c0 8-1 10-2 10s-1-13 1-17c1-3 1 0 1 7m-17 11c0 3-1 7-2 7-1 2-2-9 0-17v-4l1 4c1 2 1 6 1 10m-1 30c-3 4-5 7-6 7s0-2 2-4c2-1 3-3 3-4 0 0 1-2 2-2 1-1 2-2 2-3 0-2 2-5 3-3 0 1-2 5-6 9m-17-185c2 2 4 3 5 3s2 0 15 9c13 8 35 31 37 39 1 2 4 4 4 2 0-1-2-6-4-10-5-10-26-32-34-36-6-2-13-6-16-7-1-1-4-2-6-2l-4-1zm109 736c-5 1-10 3-23 7-6 1-14 4-19 6l-9 3-16-1c-20-1-34-2-52-4-17-1-57-1-64 1-8 2-41 2-44 0s-7-1-7 1 3 7 5 8c2 0 3 1 5 2 5 4 24 14 28 14 1 0 5 1 9 2 6 2 9 2 34 3 15 0 33 0 41 1 39 3 68-5 95-26 8-5 19-13 21-13 1 0 4-4 4-5-1-1-4-1-8 1"/><path fill="#102146" d="M1099 185c-9 1-34 7-35 9-1 0-3 1-5 2-5 2-27 12-32 16-5 3-32 16-34 16 0 0-3 1-4 1-11 5-48 5-63 0-13-4-17-5-32-12-27-13-33-16-36-17-1 0-3-1-4-1-2-1-7-3-19-7-1 0-6 0-12-1-33-3-58 7-85 35-18 18-27 30-56 72-20 28-24 35-38 53-17 22-19 25-28 39-7 10-16 27-16 29 0 1-1 2-1 4-2 3-5 12-7 24-2 10-3 16-6 41-3 22-4 132-2 214 1 35 1 36-4 38-5 3-7 9-8 22-3 29-3 34-3 46s-1 17-3 17a460 460 0 0 1-60-21c-24-9-85-41-138-72-7-4-43-27-56-36l-71-52c-17-12-33-24-41-29-17-9-30-9-42 2-8 7-9 12-9 29 0 15 0 21 5 37 0 3 2 8 2 10 2 7 5 18 14 42 2 5 9 22 13 29 2 6 22 46 23 49 1 1 8 13 15 25s15 26 17 30c3 5 8 13 12 18 52 83 117 155 172 191 37 25 84 43 144 55 6 1 12 2 15 3 2 0 6 1 10 2 31 6 33 6 33 12 0 4 5 33 10 53 0 4 1 8 2 10 0 3 1 8 2 12 5 21 6 27 7 31 0 2 1 5 1 6 1 2 2 7 6 22 0 4 2 8 2 9 2 4 4 15 3 17 0 1-1 1-17 3-7 1-16 2-21 2s-15 1-22 2c-8 1-21 2-28 3s-17 2-21 3c-10 1-18 2-29 4-12 1-28 4-34 6-3 0-9 1-14 2-5 0-9 1-10 1 0 1-4 2-9 2-5 1-11 3-14 4-3 0-10 2-16 3-11 2-22 5-37 10-5 2-11 3-13 4-7 1-25 7-34 11-4 2-12 5-17 6-16 6-21 8-26 11-3 2-6 3-8 3-1 0-3 1-5 1-1 1-4 3-8 4-19 7-59 26-68 33-4 3-12 7-17 10-10 5-16 9-25 16-3 2-8 5-10 6-3 2-9 6-21 13-7 4-15 11-22 19-4 4-11 11-15 14-14 10-26 24-34 41-2 4-5 11-8 14-6 10-9 17-10 31-2 14-5 30-6 35-2 9 0 27 5 41 0 3 1 9 2 15 2 25 9 36 42 71 8 9 12 12 22 17 4 2 9 5 11 6 5 3 21 11 27 13 3 2 9 3 25 3 11 1 22 2 24 3a159 159 0 0 0 44-2c15-2 42-12 63-23 3-1 10-5 15-7l18-11c11-9 23-17 30-21 3-2 10-8 16-13 6-6 15-14 20-19 5-4 12-11 15-15 6-7 7-8 20-20 4-5 11-12 16-18 8-10 8-11 19-20 4-4 11-10 15-16 4-5 11-13 16-18 4-4 10-10 13-14 2-3 8-9 12-13 5-3 15-13 22-20 7-8 17-16 21-19s11-9 15-13c3-3 10-9 14-12s9-7 12-9c6-6 18-14 25-19l10-5c18-12 57-32 61-32 3 0 4 1 10 10 2 5 4 8 7 13 1 3 2 5 3 5 2 2 1 7-2 9-8 5-21 13-30 20-6 4-12 8-13 9s-5 4-8 6-10 7-16 11c-13 9-14 9-40 30-35 25-44 33-46 35-3 3-2 4 7 17 12 16 15 20 30 42 4 6 8 12 9 13 3 3 1 7-4 8-2 1-7 3-10 4-4 2-10 6-14 8-12 6-23 13-31 17-3 3-9 6-12 8-26 17-57 44-87 78-1 2-6 7-9 11-4 4-7 8-7 8 0 2 2 2 6-1 35-24 47-31 68-41 10-6 11-6 27-13 6-2 12-5 14-5 3-2 31-11 50-17 17-6 43-13 45-13 1 0 3-1 4-1q4.5-3 9 6c1 2 3 5 4 7 2 3 4 7 5 10 2 3 6 10 9 15 3 6 7 13 8 16 2 3 5 9 7 13 5 9 9 17 17 32 3 7 7 17 10 21 7 16 12 27 12 28 0 0 1 3 3 6 4 8 5 11 8 18 1 4 3 8 4 11l8 16c0 2 2 6 4 10 6 16 9 21 11 21 1 0 1-1 1-3-1-1-2-7-3-12-4-20-5-26-6-29-1-2-2-6-3-10 0-4-2-10-3-15-2-5-4-11-4-14-2-5-4-12-7-20-1-3-3-7-4-10-5-14-14-36-19-49-7-15-21-42-23-46-2-2-3-5-4-6 0-1-1-3-2-4 0-1-4-6-7-13-6-9-20-31-28-43-9-13-24-34-29-40-11-14-17-22-17-25-1-2-2-4-4-5s-4-5-3-7l27-24c3-3 8-7 11-10 7-5 32-25 60-46 7-6 15-12 17-14 7-6 8-5 13 5 4 7 3 8-3 13-21 16-67 53-86 70-10 8-10 9-1 21 7 11 7 11 17 24 8 12 29 43 32 49 1 2 3 5 4 7 2 3 4 6 4 7 1 2 5 9 8 15 10 18 24 47 24 49 0 0 1 3 3 6 4 10 7 16 10 26 2 3 4 9 5 11s3 7 4 10l4 11 2 6c0 1 1 3 2 5 1 3 2 6 3 8s2 6 4 10c1 4 3 9 4 11 1 5 3 10 7 22 2 4 5 15 8 23 3 9 7 20 9 23 1 4 3 9 3 11 1 2 2 5 3 6 0 1 2 5 3 9 5 13 10 23 9 14-1-4-2-27-3-51-1-9-1-19-2-23-1-3-1-12-2-18s-2-15-3-19c0-3-1-9-2-13 0-3-1-8-2-11 0-2-1-8-2-12 0-4-1-10-2-14-2-9-2-49 0-57 1-3 2-9 2-13 1-4 2-9 2-11 1-2 2-6 2-9 1-3 2-8 3-11 0-2 1-6 1-7 1-4 4-4 5 0 14 26 37 56 64 82 9 9 18 17 18 17 2 0 2-3 1-6-2-2-7-14-7-15s-1-3-2-5c-7-15-21-65-26-90-1-5-2-12-3-14 0-2-1-8-2-13 0-4-1-9-1-11-1-1-2-10-3-19 0-8-1-16-1-17-1-4 3-3 7 1 4 5 37 35 62 55 38 32 46 39 48 38 0-1-2-6-10-23-3-6-4-13-4-14 1 0 5 2 10 4 12 5 13 6 18 7 2 1 7 3 12 5s9 3 10 3c0 0 2 1 4 1 3 1 14 4 27 7 14 3 14 4 5 13-16 14-45 51-71 87-6 9-28 41-32 49-3 4-6 9-8 12-10 16-40 77-40 82 0 1-1 2-1 4-1 1-3 4-3 6-1 3-3 7-4 11q-6 15 9-3c10-11 24-29 31-39 2-3 7-10 10-14 10-12 13-17 22-31 28-47 57-88 83-119 15-16 19-21 24-27 15-17 18-21 28-53 3-9 6-17 6-19 1-2 3-8 5-13 1-4 3-10 3-12 1-1 2-4 2-6 1-2 3-8 4-14 2-5 5-14 6-19 2-4 4-10 4-11 1-3 6-8 8-8 1 0 7-2 14-4s16-5 21-6c4-2 9-4 10-4 1-1 4-2 5-2 2 0 7-2 12-4 4-2 9-3 10-4 7-2 45-21 56-28 2-1 5-3 6-3 6-3 26-16 49-31 21-15 54-42 67-56 7-7 7-7 17-4 12 4 12 4-5 21-52 50-116 93-177 119-4 2-9 4-10 4-1 1-4 2-6 3-2 0-9 3-15 5-7 3-15 6-17 7-3 0-6 2-8 3-1 0-3 1-4 1s-11 4-12 5c0 0-4 10-8 23s-10 29-12 35-5 13-5 15c-1 3-3 6-3 7-1 2-2 4-2 5s-1 3-1 5c-1 2-2 5-3 7-5 21-11 31-31 53-29 30-55 63-75 95-13 19-25 38-26 40-1 1-2 3-3 5-8 13-19 32-21 38-1 1-2 4-3 6-6 10-8 13-8 14 1 1 8-4 15-10 5-4 12-9 24-18 1-1 3-2 5-3 3-3 26-18 28-19 1-1 4-2 7-4 2-2 6-4 8-4 1-1 4-3 7-4 23-14 51-28 91-47 4-2 12-5 18-8 5-3 10-5 11-5l4-2c1 0 6-3 11-5 8-4 13-6 32-15 7-3 13-6 14-6l8-4c5-2 9-4 9-4 1 0 27-13 39-19 4-2 11-6 14-8 4-2 8-4 9-5 1 0 4-2 8-4s7-5 8-5c1-1 3-2 5-2 3-2 10-6 15-9 1-1 4-3 6-4 5-3 14-9 22-14 3-3 8-6 11-8 7-5 20-15 32-24 6-5 13-10 14-11 5-4 36-32 47-44 15-16 35-40 51-64 12-16 34-52 43-71 6-10 7-11 17-4 2 2 7 4 10 6 7 4 23 16 33 25a160 160 0 0 1 35 38c0 1 2 3 4 6 4 7 12 22 12 25 0 1 1 5 2 10 3 12 3 55 0 65-1 4-3 8-4 9 0 1-2 5-4 8-5 15-20 31-44 50-16 13-17 14-25 18-4 2-10 4-13 6-10 4-26 11-27 11s-3 1-5 2c-3 1-5 2-5 2-1 0-5 2-9 4-5 2-11 5-15 6s-7 3-8 4c-2 0-12 4-24 8s-26 10-33 13c-6 3-11 5-12 5 0 0-3 1-5 2-3 1-6 3-9 4l-8 4c-2 2-5 4-7 5s-5 2-6 4l-3 1 8 1c14 1 32 6 59 17 17 7 21 8 30 8 10-1 20-3 30-7 4-2 12-4 17-5 12-2 22-4 27-7 2-1 7-3 9-4 10-3 24-9 27-10 1-1 5-3 9-4 7-3 13-7 28-18 6-4 13-9 17-10 7-4 22-14 25-18 1-1 6-7 11-12 11-11 17-19 20-25s6-17 6-20c0-2 4-11 6-14s6-13 6-19c1-4 3-10 5-15 3-9 4-10 4-21s-1-12-3-15-2-4-2-15-2-25-6-31c0-1-2-6-3-12q-6-22.5-9-27c0-1-2-5-4-9s-5-9-7-12c-6-8-11-15-16-22-6-8-14-17-20-23-7-6-14-14-17-18-1-2-4-5-5-7-2-2-3-5-3-6 0-2 0-2 4-2l9 3c12 6 19 9 20 9 0 0 6 3 14 6 7 4 13 7 14 7s27 13 37 19c3 1 8 4 12 6 3 2 7 4 8 5s4 2 5 3c1 0 3 1 4 2 9 5 15 9 16 9 0 0 4 2 8 5 9 6 10 6 23 14 5 3 16 11 26 17 16 11 22 15 24 15s-1-4-8-10c-5-4-13-11-17-16-31-29-72-60-104-78-4-2-10-6-14-9-13-7-58-30-80-39-4-2-8-4-9-4-6-3-12-5-22-8-6-2-14-5-17-6s-9-3-13-5c-9-3-9-3-10-17-1-19-4-52-5-61-1-5-2-12-3-17 0-4-1-10-1-14-1-3-2-9-2-14-1-4-2-10-2-12-1-2-2-7-2-10-1-8-4-17-7-20-7-7-72-41-98-52-18-7-29-11-31-12-3-2-1-6 3-8 20-12 42-33 57-58 11-16 11-15 18-31 11-21 18-42 28-78 3-9 4-11 9-12 10-2 66-16 76-19 18-5 58-18 68-22 1 0 6-2 10-4 26-9 65-28 96-46 8-5 17-9 18-10 8-3 39-26 63-48 21-18 45-46 57-66 19-31 26-48 32-76 1-5 1-33 0-39-6-35-25-58-60-75-12-6-16-7-32-11-24-6-59-6-92 0-15 3-17 3-40 10-10 3-27 9-35 12-19 7-20 7-31 13-7 3-38 18-39 19-1 0-6 3-12 7-9 4-39 22-66 38-4 3-47 31-49 32-2 2-3 0-5-8l-4-11c-1-2-2-6-3-7 0-3-4-8-5-9s-3-1-5-1c-7 1-8 0-16-35-1-6-3-13-4-16 0-2-1-6-2-9 0-2-1-6-1-7-1-1-2-5-3-9-2-12-5-26-9-37-1-3-2-8-3-12-2-12-5-23-5-24-1 0-2-4-2-8-1-3-3-10-4-14s-3-10-4-14c0-3-2-8-2-11-2-5-4-14-7-23-5-21-10-38-14-46-6-11-12-17-38-31-11-6-20-12-21-12-1-1-3-2-5-3-6-2-30-19-40-27-14-10-24-18-25-19 0 0-3-3-7-6s-11-10-17-16c-43-39-85-69-111-76-20-6-41-9-54-7m32 28c1 1 5 2 9 2 8 2 29 12 39 18 15 11 35 27 71 58 42 37 61 50 97 67 41 18 51 27 58 56 0 4 2 10 3 15 2 9 5 20 7 32 1 4 3 10 3 12 1 3 3 10 4 15 1 6 3 13 4 16 1 4 1 8 2 9 0 4 3 18 6 29 1 4 2 8 2 9s1 6 2 9c1 4 3 12 4 17 1 6 3 13 4 16 0 4 2 10 3 14 2 13 5 25 7 34 5 22 5 24 4 26-1 4-18 13-46 26-4 2-12 5-22 9-6 2-25 10-32 12-3 1-8 3-11 5-6 2-42 14-52 17-3 1-9 2-14 4-15 4-48 12-64 15-3 1-7 1-10 2-2 0-9 2-15 3s-11 2-12 2c0 1-5 1-10 2-4 1-12 2-16 2-11 3-28 5-37 6-5 0-13 1-19 2-7 1-15 1-20 1h-8l-2-3c-1-2-3-7-5-11-12-33-36-64-65-85-6-5-11-8-11-8-1 0-4-2-7-4-14-8-43-19-54-21-3 0-7-1-9-2-9-3-59-2-72 1-12 3-26 7-28 9-1 0-3 1-4 1s-17 8-24 12q-18 10.5-33 24c-22 22-35 42-45 69q-4.5 15-9 12c-1 0-4-1-8-1a439 439 0 0 1-71-16c-11-3-10 1-9-50 1-24 1-52 1-63s0-31 1-45c3-76 3-75 6-110 2-19 4-28 9-41 6-17 10-25 28-52 17-23 26-37 40-60 2-5 9-16 14-25 4-6 9-15 12-20 9-15 10-16 17-26 14-22 33-37 50-41 13-3 33-1 47 4 5 2 10 4 12 4 2 1 4 2 5 3 2 0 3 1 4 1s12 4 25 11c19 9 37 14 51 14 4 0 7 1 8 1 2 2-1 6-7 9-3 2-6 4-7 5-5 4-19 10-35 14-8 3-24 4-32 2-21-3-31-9-49-26-5-5-10-9-11-9-4 0-5 8-2 20a73 73 0 0 0 53 50c4 3 33 3 41 0 1 0 5-1 8-2s6-2 7-2c0 0 2-1 5-2 2-1 7-3 12-5 4-2 8-4 9-4 1-1 3-2 5-3s6-4 10-6c8-5 13-8 39-28 53-40 80-54 108-58 7-1 27 0 31 1m733 359c41 8 63 24 74 51 8 20 8 48 0 69-1 3-2 5-2 6 0 3-12 28-19 39-16 26-44 55-71 76-23 18-34 25-50 34-14 8-37 20-41 21-1 1-8 3-14 6-32 14-69 26-97 32-3 0-10 2-17 3-7 2-14 3-17 3-2 0-5 1-6 1-4 2-9 0-7-1 1-1 3-2 5-3 2 0 9-3 15-5s13-5 15-5c1 0 5-2 8-3s14-5 25-10c11-4 25-10 32-13 6-3 12-5 12-5 2 0 20-9 26-12 2-2 7-5 10-6 17-9 41-28 43-33 3-5-11-15-27-18-3-1-8-1-12-2-8-1-51-1-59 1-3 0-9 2-14 2-18 4-44 10-57 15-36 12-43 15-52 18-5 2-10 4-11 5-5 2-15 6-21 8-9 4-18 8-40 19-4 1-9 3-11 4-5 1-40 20-55 29-34 19-80 49-124 81-74 52-131 82-209 108-10 3-22 7-26 8-5 1-12 3-16 4-7 2-16 4-29 7-3 1-7 2-9 2-5 1-13 3-21 4-4 1-7 1-7 2-2 0-16 3-33 5-19 2-25 3-37 4-7 1-17 2-22 2-57 5-173 3-227-4-5-1-12-1-17-2s-12-1-16-2c-5-1-12-1-16-2-4 0-10-1-13-2-4-1-11-2-15-2-5-1-13-3-17-3-4-1-10-2-13-3-5-1-23-6-30-8-75-22-132-62-186-127-17-21-43-57-60-86-4-6-9-14-11-16-3-5-17-30-26-47-4-8-8-14-8-15l-18-39c-2-4-5-8-5-9-1-1-2-4-3-6-1-5-4-12-7-20-4-9-15-41-17-50-7-24-7-46 0-41s26 19 38 26c7 6 24 17 37 26 29 19 39 26 61 40 10 5 19 11 20 12 3 2 4 2 18 10 5 3 10 6 11 7 23 13 22 13 39 22 35 19 105 53 127 60 10 4 10 6 1 12l-11 7c-2 2-7 5-9 6s-12 7-21 13c-10 7-24 15-32 20-19 10-20 11-20 12 0 2 7 0 27-6 31-11 41-15 67-28 13-7 25-12 26-12 2 0 9 3 16 7 22 12 70 27 110 36 4 1 11 3 16 4 4 1 11 2 14 3 7 1 9 3 14 10 5 8 23 26 33 33 19 14 46 25 71 30 10 2 56 2 69 0 33-5 60-13 83-27 18-11 25-15 47-34 4-3 7-5 14-7 5-1 13-4 19-5 12-5 36-12 53-17 15-4 49-16 73-26 5-2 12-5 16-6 3-1 7-3 10-4 16-8 24-11 43-21 11-5 21-11 22-11 0 0 7-4 15-8 7-4 14-8 15-8l8-4c12-7 30-17 45-26 8-4 15-8 15-8q1.5 0 6-3c12-7 8-2-10 14-12 10-43 39-64 60-10 10-19 19-21 20-3 2-29 30-40 42-5 5-13 14-18 20s-12 13-14 16c-2 2-8 9-13 14s-14 15-21 23c-18 20-40 42-55 55-13 12-15 14-14 14 3 0 24-12 44-24 13-8 34-24 55-43 5-4 33-31 62-61 29-29 57-55 61-58 3-4 9-9 13-12 4-4 14-14 24-23 21-18 18-16 26-23 22-21 87-75 126-103a987 987 0 0 1 74-52c17-11 46-28 48-28 0 0 4-2 9-5 12-7 40-20 55-26 4-2 10-4 12-5 18-7 46-15 71-19 8-1 51-1 57 0m-955 84c50 8 100 44 123 89 17 33 24 70 19 100-2 15-4 23-5 28-1 3-2 6-2 7 0 2-7 17-11 24-8 13-25 33-33 38-6 4-5 2 4-10 14-19 22-36 29-64 3-12 5-43 3-42-1 0-2 2-2 3-2 26-6 39-16 59-22 48-67 83-115 92-3 0-8 1-11 2-7 1-33 1-41 0-12-2-17-3-25-6-59-17-103-82-103-151 0-44 12-80 37-111 24-30 61-52 100-59 7-1 38-1 49 1m430 91c-1 0-2 1-3 2s-3 2-5 3c-2 0-6 2-10 3-7 3-26 10-33 13-2 0-8 2-11 4-4 1-10 3-12 4-3 0-8 1-10 2s-8 3-13 4-10 3-12 4c-3 0-7 1-9 2-2 0-7 1-11 2s-9 2-11 3c-9 2-40 9-46 10-14 2-17 3-18 3 0 1-5 1-10 2-6 1-12 2-14 2-2 1-8 1-13 2s-10 1-12 2c-3 1-6-3-6-11-1-10 0-11 6-11 8 0 56-5 60-7 1 0 5 0 9-1 13-2 40-6 58-10 2 0 7-1 11-2 3-1 8-2 11-3 3 0 8-1 10-2 20-4 37-8 44-10 2 0 7-1 9-2 2 0 10-2 16-4 13-4 31-7 25-4m-734 13c4 2 14 5 25 7 3 1 11 3 18 5 15 4 32 7 37 7 6 0 8 2 6 7s-4 6-14 4c-3-1-10-2-13-3-4 0-9-1-11-2-2 0-5-1-6-1-3 0-8-2-23-6-3-1-6-2-7-2-2 0-13-5-17-8-5-4-7-12-2-10 1 0 4 1 7 2m925 138c4 9 2 36-4 57a192 192 0 0 1-15 44c-2 7-5 13-5 14-1 1-2 5-4 8-11 26-35 63-52 81-9 8-20 15-28 18-11 3-34 0-37-5-1-1-2-2-3-2s-2 3-2 21c0 11-1 27-2 37s-2 20-2 22c-2 15-9 50-14 63-4 9-14 30-18 36-12 18-28 38-31 38-1 0-5-1-9-3-7-2-10-2-25-3-16-1-19-1-27-3-8-3-10-3-32-4-19-1-25-1-28-2s-6-2-7-2c-4-1-7-4-13-14-10-17-13-21-15-21s-1 2 4 14c4 10 5 17 3 20-1 0-4 1-8 1h-7l-13-13c-13-12-22-19-23-18 0 1 3 5 7 10 3 5 8 11 9 14 6 8 1 9-30 2-5-1-13-2-16-3-4-1-10-1-14-2-8-1-17-2-47-5-23-1-44-1-55 2-2 1-5 1-7 1s-9 2-15 4c-18 6-26 8-29 8-1 0-4 1-6 2-4 1-10 1-26 1-17 0-23 0-26-1s-7-2-8-2c-3 0-12-3-28-8-7-2-14-3-17-4s-8-2-12-2c-4-1-10-2-15-2h-9l-6 6c-10 9-12 9-30 4-7-2-7-2-10-1s-8 2-15 3h-11l-2-3c-2-4-5-12-8-22-1-7-5-18-6-22 0-1-2-7-3-12l-4-16c-5-21-11-50-13-61 0-5 1-6 12-2 13 5 30 11 51 16 14 3 47 8 50 7 5-1 6 1 6 12 1 24 14 37 48 49 6 3 8 4 14 11 12 13 20 17 40 18 23 1 35-7 34-21-1-7 0-9 10-10 3 0 11-2 17-4s15-5 21-6c21-6 29-10 41-21 8-8 14-19 14-25 0-7-7-17-15-22-3-2-4-6-1-6 6 0 16-1 22-2 3 0 10-2 16-2 42-7 88-18 114-27 65-22 137-68 175-110 14-15 15-16 16-15 2 1 2 31 1 43-3 32-8 55-19 87-6 20-3 17 21-20 12-17 26-41 31-55 5-12 6-15 10-26 6-15 10-31 13-44 3-10 5-16 9-25 10-19 41-44 43-33 1 5-6 17-15 29-14 16-15 18-10 26 2 5 5 17 5 22 0 8-3 15-14 31-5 8-4 8 11 4 27-9 36-16 41-32 3-10 3-13-1-19-5-6-5-6-1-14 8-14 10-27 10-53v-18l3-2c1-1 3-3 4-5 2-6 6-3 9 7s4 46 1 57c-4 15-2 18 5 11 5-6 9-16 12-32 1-3 2-8 3-11 2-8 1-29 0-34-3-6-3-9 1-11 2 0 4-1 4-2 2-3 5-1 7 4m-638 268c20 4 34 5 47 6 19 1 28 4 43 13 11 8 12 10 8 23-4 11-9 18-12 18 0 0-3-1-5-2-17-12-44-8-70 9-18 13-25 15-39 12-13-3-23-9-33-19-5-5-8-8-10-8-2 1-5 7-5 10 0 7-4 9-9 4-6-7-7-15-4-32 2-13 4-18 7-18 2 1 2 2 4 14 2 10 3 12 5 10s3-9 4-24c0-10 1-13 2-14 4-4 48-5 67-2m569 16c27 10 43 18 64 32 19 12 19 12 13 28-11 32-47 90-69 112-5 5-6 6-13 3-7-2-9-5-6-8 1-2 6-8 11-15 13-15 23-30 32-44 1-1 5-9 10-17 10-17 20-36 19-37 0-1-3-3-6-6-3-2-11-7-18-13-7-5-21-15-32-21-10-7-20-14-21-15s-4-2-5-3l-2-2c0-2 7 0 23 6m-52 21c0 3 2 8 3 11 1 4 3 10 4 12 0 2 2 9 4 13 1 5 3 12 4 16s2 7 3 8c0 1 1 4 2 7 1 7 3 13 5 19 4 15 4 22 1 27-1 1-3 4-5 8-4 8-11 18-15 21-2 2-2 2-19-3-12-3-15-4-17-4-3 0-4-3-2-5 1-2 10-20 13-27 3-8 10-36 10-40 0-2 0-5 1-7 2-10 3-24 3-41 0-10 0-19 1-19 1-2 3 0 4 4m-383 114c7 2-6 22-17 28-5 3-8 1-9-5-1-10-3-10-8 0s-10 15-17 18c-6 2-8 0-8-4 0-2-2-4-4-4-1 0-4 2-7 5-4 5-6 6-11 7-9 2-48 3-57 1-4-1-14-2-22-2-9-1-16-1-19-2-15-5-27-19-27-30-1-7 1-8 20-4 49 9 79 9 114 0 16-4 31-8 35-8 6-1 36-1 37 0m-345 3c17 3 33 17 48 40 3 5 2 6-15 5-9 0-16-1-17-1-4-3-18-15-29-25-6-5-13-11-15-13-4-3-4-4-3-5 2-2 22-3 31-1m45 0c14 1 20 4 29 13 11 11 22 28 21 32l-1 3h-12c-9 0-12-1-16-2-7-4-40-39-40-43 0-3 3-4 7-3zm325 1c2 3-2 10-8 13q-9 4.5-6-3c1-2 2-5 2-7 1-2 2-4 3-4 2-1 7 0 9 1m-412 2c10 4 21 13 37 32 9 11 9 11-9 11-8 1-16 1-18 0-1 0-10-6-18-12-9-6-20-15-26-19-10-7-12-10-8-11 7-2 38-2 42-1m551 1c3 1 6 2 8 3 1 0 3 1 3 1 2 0 11 7 18 13 7 8 18 26 18 31 1 3-2 3-21 1-15-2-15-2-32-19-7-8-16-17-19-19-6-6-7-9-3-11 3-1 22-1 28 0m-404 3c10 4 16 10 23 25 5 12 5 12-9 13l-9 1-6-7c-4-3-10-11-14-16-4-4-9-10-11-12-7-6-6-7 8-6 7 0 14 1 18 2m365 1c11 8 37 37 37 42 0 2-2 2-5 1h-12c-10 1-11 1-22-4-17-9-51-37-44-38 4 0 7-1 13-2 21-4 26-4 33 1m-562 2c17 8 43 32 40 37-1 1-14 2-28 2h-9l-15-10c-8-6-17-12-19-14s-6-4-9-6c-5-3-7-4-6-7v-2s2-1 5-2 7-1 20-1c14 0 16 1 21 3m653-2c18 4 35 22 43 45 2 8 2 8-12 8-21-2-20-1-35-23-5-6-11-14-15-18-10-11-9-13 4-13 5 0 11 1 15 1m45 5c20 3 32 16 43 42 5 14 4 15-8 13-4-1-11-2-14-3-8 0-10-1-14-10-3-6-19-31-24-37s2-8 17-5m-751 2c6 3 12 6 16 9 6 4 26 25 26 26-1 4-24 4-31 0l-6-2c-1 0-12-6-27-13-24-12-25-12-25-15 0-2 1-3 5-3 2-1 6-2 10-2 9-2 26-2 32 0m562 1c3 1 8 4 11 6 6 5 32 29 32 31s-5 3-17 3c-15 1-12 2-34-15-15-11-25-20-25-22 0-1 5-2 9-3 5-1 9-2 10-2 1-2 9-1 14 2m238 3c21 5 33 16 42 42 5 15 4 16-9 13-3-1-9-2-14-2-10-1-10-1-17-15-7-15-12-23-17-30q-6-7.5-3-9c1-2 10-1 18 1m-857 4c5 1 10 2 10 3 1 0 6 3 11 6 6 3 12 6 14 8 2 1 5 3 7 4 17 12 18 14 4 16-5 1-11 2-15 3-8 1-7 1-23-8l-26-15c-23-11-23-13-4-16 6-1 11-2 11-3 1 0 2 0 11 2m582 2c8 5 15 11 26 21 9 9 10 11 3 12-2 0-9 1-15 2-11 2-14 2-16-1 0 0-3-2-5-3-8-5-28-20-29-22-1-3 2-6 5-6 1 0 4-1 7-2 15-6 16-6 24-1m328 5c19 4 31 18 37 39 2 11 3 19 1 20-2 0-13-2-25-5-4-1-7-5-12-14-9-17-15-27-18-31-3-3-4-6-4-8v-3h7c4 0 10 1 14 2m-945 7c10 4 14 6 24 12 21 15 22 17 7 19-6 1-12 2-14 3-6 2-8 1-20-6-14-7-33-17-35-17s-8-5-8-7 3-4 11-6c12-4 22-4 35 2m982-1c26 4 37 12 46 36 6 16 8 23 8 28s-2 6-8 3c-3-1-6-2-7-2-2 0-17-5-20-6-2-2-3-5-7-13-10-23-14-32-17-36-6-8-6-9-5-11 1 0 2-1 3 0 1 0 4 1 7 1m-401 6c8 5 23 18 24 20s-4 4-10 4c-7 0-14-3-28-11-13-8-14-11-4-16 8-4 7-4 18 3m-632 4c2 1 5 2 6 2 3 0 19 9 27 15 4 3 9 7 12 8 6 4 5 6-2 7s-20 4-24 5-4 1-19-7c-9-4-19-9-23-11-4-1-7-3-7-3-1 0-3-1-6-2-9-2-10-7-3-10 12-5 32-7 39-4m1087 5c14 2 28 11 35 22 4 6 8 19 10 29 1 4 2 10 2 12 2 8 0 9-8 5-4-1-13-4-19-6-3-1-7-5-8-11-1-2-2-4-2-5-1-1-2-3-2-4-1-2-16-32-19-39-3-4-2-5 2-5 2 1 6 1 9 2m-576 1c80 2 92 4 102 13 5 6 4 8-6 10-34 7-127 6-147-1-14-5-26-18-19-22 2-1 20-1 70 0m-250 6c2 1 6 1 7 2 3 0 3 4-2 6-2 2-4 3-5 3-4 0-52 25-59 31-4 4-14 11-18 12-5 4-19 13-24 18-16 13-20 16-29 22-5 4-11 9-13 11-5 6-6 8-17 17-6 4-16 14-23 21s-17 16-22 21-12 12-16 17c-4 4-11 11-15 14-4 4-11 11-14 16l-12 12c-7 5-12 11-17 18-4 5-13 13-18 17-7 4-18 13-23 19-5 7-9 10-20 17-4 3-10 8-15 12-7 7-10 9-30 19-11 4-22 8-30 10-4 0-9 1-10 2-5 2-24 1-30 0-2-1-6-2-7-2-2 0-8-2-13-5-6-2-11-4-11-4-3 0-25-19-29-24-3-3-11-15-11-16 0 0-1-2-2-5-3-7-6-31-4-39 0-3 1-7 1-10 0-2 1-5 4-9 1-3 4-7 5-9 6-10 8-13 18-26 5-6 12-15 15-20 8-10 13-15 22-21 3-2 9-7 13-9 6-5 26-17 31-20 2-2 7-4 11-7 12-7 46-24 62-31 8-3 16-7 19-8l4-2c1 0 5-2 10-4 4-2 8-4 9-4s15-5 24-8c3-1 10-3 15-5 4-2 11-4 14-5 7-3 14-5 26-8 6-2 14-4 19-6 18-5 43-10 62-13 3-1 11-2 17-3 20-4 40-7 52-9 32-3 37-4 49-4 7 0 14-1 15-1 4-1 10-1 15 0m-309 2c2 1 6 2 7 3 2 0 4 1 4 1 5 0 39 20 39 22 0 3-2 4-23 11l-6 2-13-7c-7-3-16-8-20-9-4-2-9-4-10-5-2-1-4-2-5-2-3 0-8-4-8-6 1-2 22-10 29-11 0 0 3 0 6 1m413 3h32l3 3c8 9 19 18 20 15 0 0-1-3-2-7-1-3-2-6-2-8 0-5 7-3 15 5 6 6 10 8 19 9 40 6 163 8 192 3 1-1 6-1 11-2 4-1 11-2 15-3 3 0 11-1 16-2 13-1 32-4 43-6 5-1 10-1 10-1 3 1 2 5 0 10-12 28-13 35-2 20 4-4 9-10 13-14 3-4 7-9 9-11 5-8 8-9 32-9 14-1 20 0 23 1 2 0 8 1 14 2s13 2 16 2c3 1 9 2 13 2 3 1 9 2 12 3 3 0 7 1 9 1 6 0 4 5-8 16-17 17-52 45-72 58-5 4-12 8-14 10-17 12-38 26-65 42-10 6-19 11-21 13-15 9-49 27-58 30-34 11-92 13-149 5-7-1-14-3-16-3-2-1-7-2-9-3-11-1-29-8-34-13-4-3-5-5-21-29-10-16-26-38-32-47-2-2-5-7-8-11-2-4-6-8-7-10-2-2-8-10-14-18-5-8-11-15-13-17-1-1-4-6-7-9-3-4-9-11-13-16-10-13-10-13 5-13 7 1 27 1 45 2m-72 5c1 2 4 6 6 10 2 3 5 7 6 9s2 3 2 4c0 0 1 2 2 3 3 4 2 9 0 8-6 0-21-3-24-4-5-2-18-2-18-1-1 0 3 2 8 4 9 4 14 8 13 11 0 3-3 4-15 8l-10 3-10-1c-6-1-13-3-15-3-8-2-22-3-25-2-4 1-11-4-9-7 0-1 12-9 18-12 4-2 5-2 21-2 17 0 21-1 9-4-6-1-9-3-9-5 0-1 5-4 10-6 5-3 12-7 16-9 14-8 19-9 24-4m848 0c4 1 10 4 13 5 13 8 23 32 25 56 0 14 0 14-8 10-4-1-9-4-13-5-10-4-13-7-17-22-5-19-7-24-11-33-7-15-5-17 11-11m-1218 11c28 13 43 23 35 25-1 1-5 2-7 3-22 8-23 8-36 2s-21-9-33-12c-3-1-7-2-9-3-8-4-7-6 5-10 26-9 34-10 45-5m1255 0c11 4 25 12 30 18 10 10 16 31 16 57 0 12-1 16-5 13-2-1-3-2-4-3-3-1-15-11-19-16s-5-7-11-28c-4-14-10-28-13-34-5-9-4-10 6-7m-1303 20c11 2 43 17 44 20 1 2-2 4-7 5-2 1-8 3-12 5-12 6-14 5-42-4-8-3-14-5-31-10-9-3 3-12 22-17 10-3 13-2 26 1m1357 5c23 11 39 41 33 62 0 2-2 9-2 17-1 7-2 15-3 16 0 3-4 3-5-1-1-1-5-6-9-10-9-11-11-14-14-33-5-31-5-32-12-49-1-2-1-3 0-5 2-2 2-2 12 3m-997 18c9 3 17 7 17 9 1 2-1 5-4 6-1 0-6 2-10 4-9 5-11 5-38 3-9 0-16-1-16 0-1 1 7 3 14 4s9 1 12 4c8 7 7 10-5 16-11 5-19 6-31 5-5 0-18 0-28-1-23 0-23 0-16-7 12-13 29-21 44-21 6 0 9-2 5-2-1-1-5-1-9-1-9-1-9-2-1-9 11-8 19-11 30-12 15-1 29 0 36 2m-394 0c1 1 3 2 4 2 3 0 26 12 28 14 4 3 1 5-13 10-15 5-15 5-30 1-6-2-15-4-19-4-4-1-8-2-9-2 0-1-5-2-10-3-5 0-10-2-10-2-3-3 9-11 24-16 7-3 29-2 35 0m-36 25c10 2 24 8 26 11 3 3 0 6-14 12-15 8-19 8-33 5-6-1-12-1-28-1h-22c-6-4 13-19 36-27 9-4 22-4 35 0m1479 13c6 5 10 10 16 20 6 8 6 18 1 31-4 12-14 29-16 29s-12-20-15-29-3-24 0-41c3-19 4-19 14-10m-1123 17c13 2 22 6 22 9 0 4-10 10-23 16-5 2-7 2-36 3-33 1-33 1-34-2-1-4 11-15 24-22 7-3 9-4 21-4 13-2 13-2 26 0m-386 2c8 1 15 5 17 8 2 4 0 6-12 13-13 7-19 9-51 11-18 2-25 4-35 8-13 7-11-2 4-17 12-12 28-22 37-22 2 0 5-1 8-2 4-1 21-1 32 1m1543 30c7 9 9 14 9 22 0 11-2 15-19 32-9 10-13 11-14 6 0-1-1-4-2-6-3-9-1-18 9-37 7-15 9-19 9-20s2-3 3-3 3 3 5 6m-1185 1c19 3 19 12-1 22l-8 4-28 2c-43 2-45 1-37-7 9-10 22-18 33-20 3-1 9-2 11-2 6-1 18 0 30 1m-377 7c6 3 4 8-6 18-11 11-17 14-36 17-4 0-15 4-19 7-1 0-5 2-7 3-3 1-8 4-11 6-13 9-13 8-11-7 3-16 10-26 22-32 2-2 7-4 9-5 7-4 17-7 26-8 10-1 31 0 33 1m353 27c6 3 6 8-1 15-9 10-18 13-52 13-33 1-36 0-29-9 8-11 25-19 41-20 12-1 38 0 41 1m1225 7c1 1 4 6 6 10 4 9 4 16 0 24-3 6-18 19-28 24-3 1-7 3-9 5-6 5-8 2-8-17 0-13 2-16 22-36 12-12 14-13 17-10m-1606 8c2 2 3 0-3 12-5 11-10 16-20 23-13 9-35 28-41 37-3 4-4 2-6-8-2-11 0-23 4-32 6-11 24-25 41-31 9-3 23-4 25-1m340 19c7 1 10 2 13 6 2 3-1 7-11 14-9 6-10 6-40 7-38 2-37 2-39-1-2-2-1-3 7-11 16-16 32-19 70-15m-354 23c3 4 4 13 3 22-1 11-1 12-10 23-9 12-13 20-18 37-6 16-7 16-13 7-12-20-13-39-2-60 7-14 35-34 40-29m1624 2c8 5 11 18 7 28-4 8-9 11-21 13-5 0-13 3-25 7-4 1-8 2-9 2-3 0-3-4-2-8 1-1 2-4 3-6 1-8 8-15 26-29 13-8 15-9 21-7m-1017 11c1 2 2 5 2 5 0 1 2 5 5 11l4 10c0 1 1 2 1 3 1 1 3 4 16 36a1379 1379 0 0 1 16 44c1 2 2 4 3 7s2 7 6 17c3 10 5 22 3 19-1-1-2-3-4-5-1-1-2-4-2-7-1-2-2-4-3-5 0-1-1-2-1-3 0 0-1-4-2-7-2-4-5-13-8-21-3-7-7-15-7-18-4-9-9-22-10-25-1-1-2-3-2-3 0-2-4-11-6-17-1-2-2-4-2-5s-1-2-1-4c-3-5-7-14-7-16 0 0-1-3-2-5s-2-4-2-5-1-2-2-3c0-2-1-3-1-4s-1-3-1-4c-4-7 2-2 7 5m-291-4c1 0 4 1 7 2 14 2 15 9 4 18-12 10-12 10-60 9-24 0-25 0-26-2-1-4 13-16 25-21 3-2 15-5 27-7 5-1 20 0 23 1m-31 34c9 1 19 4 19 7 0 4-11 14-22 19-7 4-8 4-50 3-33-2-34-3-19-14 22-15 36-18 72-15m-275 3c9 12 11 17 9 26-6 23-6 27-9 55-1 12-4 12-18-2-9-9-11-14-11-30 0-17 4-30 15-46 7-8 9-9 14-3m1615 3c2 4-1 15-7 23-4 5-16 9-32 11-38 4-39 4-29-10 6-8 10-11 23-16 20-9 42-13 45-8m-1594 25c1 2 5 5 9 8 8 6 10 8 10 13 0 7 4 31 6 38 1 4 4 10 6 14 6 10 5 11-1 11-11 0-20-4-30-12-7-6-9-11-11-22-1-4-2-9-2-10-1-5 2-28 5-37 3-7 3-7 8-3m219 3c10 2 18 6 19 8 1 4-15 15-28 20-7 2-24 3-31 1-2-1-7-2-12-3-12-3-17-4-22-6-3-1-6-2-7-2s-2-1-3-1c-2-2-2-2 0-4 4-4 25-13 34-14s41 0 50 1m1357 12c6 6-2 21-13 27-5 3-41 4-47 2-2-1-9-2-15-2-15-1-16-2-8-10 7-8 21-15 30-15 2 0 5 0 7-1 11-3 15-3 29-3 13 0 15 1 17 2m-1528 12c5 3 10 8 15 17 5 11 15 26 21 33 3 3 6 6 6 7 0 2-5 2-20 2s-16-1-20-3c-14-10-22-27-24-50-1-15 0-15 10-11 4 2 9 4 12 5m95 0c9 2 19 5 28 8 3 1 9 3 13 4s7 2 8 3c0 2-2 5-7 7-3 1-7 3-10 5-12 7-21 7-36 2-8-2-39-18-42-21-2-2-3-5-1-5 1-1 4-1 8-2 13-4 24-4 39-1m-68 4c4 1 10 4 14 5 3 2 10 6 15 8s13 7 18 10c4 3 12 7 16 9 6 3 7 4 7 6s-3 4-7 4c-1 0-4 1-6 2-4 1-14 4-21 5-12 2-28-12-40-33-8-13-9-15-6-17 2-1 2-1 10 1m1442 16c2 1 5 2 7 2s6 1 9 2 7 3 8 3c8 2 6 6-6 13-17 11-21 13-26 13-6-1-13-3-17-4-3-1-9-3-14-5-5-1-11-3-12-3-1-1-6-2-10-3-8-1-8-2-8-4 0-4 10-9 27-13 9-2 35-3 42-1m-62 23c25 6 44 14 44 19 0 3-14 10-30 16-12 4-12 4-22 1-15-6-18-7-26-10-5-2-9-3-10-3s-3-1-4-2c-2 0-5-1-8-2q-4.5 0-6-3c-2-3-1-4 4-6 24-8 32-11 38-12 3 0 6-1 6-1 1 0 7 1 14 3m-61 22c14 3 19 5 30 10 10 5 19 11 19 13s-11 7-27 11c-14 4-15 4-33-5-13-6-29-11-42-12-20-1-10-9 21-15 19-4 23-5 32-2m-39 23c17 5 34 16 30 20-1 2-40 2-46 1-3-1-11-3-17-4-32-7-36-11-18-16 11-4 38-4 51-1M1107 249c-20 4-31 9-42 20-9 9-13 15-14 24-4 23 10 44 39 60 17 10 46 23 58 27 7 2 14 4 18 6 2 0 8 2 13 3 4 2 10 4 12 4 2 1 6 2 9 3 3 0 10 2 15 3 4 2 12 4 16 4 3 1 8 2 9 3 2 0 6 1 10 2 4 0 10 1 14 2 16 3 74 3 86 0 1-1 6-2 10-2 13-3 8-5-11-7-12-1-15-1-37-5-25-4-47-9-69-16-4-1-10-3-13-4-4-1-7-2-8-3-2 0-6-1-9-2-11-3-12-6-1-7 3-1 9-2 13-3 15-3 63-2 76 2 4 1 2-2-3-5-13-6-40-14-66-18-6 0-12-1-15-2-2-1-9-1-14-2-6-1-13-2-15-2-3-1-9-2-13-2-5-1-10-2-11-2-2-1-7-1-10-2-8-1-27-7-34-11-11-5-20-17-20-26 0-11 15-32 27-38 8-4 6-6-7-6-4 0-10 1-13 2M861 687c-7 0-15 2-18 3s-6 2-7 2c-2 0-26 12-31 15-40 28-62 72-62 123 0 61 38 116 92 132 19 6 19 6 39 6 38 0 67-11 93-37a145 145 0 0 0 39-155c-14-39-48-73-85-85-10-2-34-6-42-6-4 0-12 1-18 2m48 20c11 3 21 7 26 11 7 7 1 15-29 42-22 19-28 26-36 42-8 14-14 37-13 47 3 26 13 48 28 60 17 13 33 19 51 18 5 0 7 0 8 1 0 2-7 7-20 13-46 22-106 4-136-42-15-22-20-38-21-65 0-22 2-35 8-50 17-43 53-72 99-78 5-1 28 0 35 1m58 38c30 35 36 89 16 124-14 22-34 39-38 32-1-2-1-3 3-9 16-28 21-42 20-64-1-16-5-27-13-43-4-7-5-11-2-17 2-5 6-20 6-22 0-3 2-6 3-6 0 0 3 2 5 5m-32 49c13 22 15 47 6 68-6 13-26 37-32 37-5 0-15-16-18-29-5-24 5-50 26-71 12-11 14-12 18-5m-45 649c-6 1-36 3-45 2-10 0-10 0-1 6 19 12 34 16 62 16 19 0 20 0 33-3 17-5 30-8 44-9 6-1 13-2 15-2 3-1 6-1 8-1 4 0 6-2 4-3s-6-2-26-3c-9-1-25-2-35-3-19-1-53-1-59 0"/></svg>